<svg width="800" height="800" viewBox="0 0 800 800" fill="none" xmlns="http://www.w3.org/2000/svg">
<rect width="800" height="800" rx="200" fill="#8A817C"/>
<path d="M436.485 719.476C429.169 718.48 416.245 714.776 407.835 711.263C400.326 708.126 387.977 701.378 384.475 698.498L382.398 696.791L381.95 680.767C381.374 660.155 382.976 621 385.559 592.568L386.428 582.997L393.197 583.482C396.92 583.749 408.161 584.634 418.177 585.449C445.805 587.696 457.125 588.16 468.16 587.499C473.694 587.168 479.123 586.733 480.225 586.534C482.087 586.197 482.563 586.729 486.933 594.039C492.529 603.399 502.337 616.607 508.814 623.506C515.025 630.12 518.578 637.364 519.675 645.646C523.704 676.084 499.48 709.889 467.787 718.053C460.81 719.85 444.64 720.585 436.485 719.476ZM368.19 686.366C359.556 679.297 351.286 668.081 345.136 655.1C337.039 638.007 333.608 622.316 334.209 605.121C334.41 599.382 334.999 592.964 335.518 590.859L336.462 587.03L342.129 585.829C351.448 583.853 357.764 583.166 366.725 583.15L375.22 583.136L374.744 588.912C374.482 592.089 373.931 598.545 373.519 603.259C371.238 629.363 371.193 675.102 373.437 687.112C373.781 688.952 373.854 690.448 373.599 690.437C373.344 690.426 370.91 688.594 368.19 686.366ZM549.768 637.139C543.226 635.915 536.225 633.754 530.282 631.126C520.562 626.828 506.742 615.723 498.754 605.794C493.725 599.542 488.01 591.357 488.402 590.968C488.541 590.83 490.972 589.489 493.804 587.987C509.294 579.774 527.731 564.534 551.642 540.177C574.995 516.388 590.899 496.424 604.449 473.89L606.959 469.715L611.068 477.423C619.245 492.763 623.592 505.371 626.958 523.513C628.394 531.256 628.683 535.282 628.668 547.362C628.651 560.244 628.421 562.985 626.635 571.493C619.482 605.593 599.702 630.689 575.481 636.396C568.158 638.122 556.775 638.451 549.768 637.139ZM290.199 597.706C275.63 594.179 263.317 582.055 260.233 568.202C259.328 564.135 259.399 551.665 260.333 550.732C260.597 550.468 265.124 552.411 270.394 555.048C283.019 561.366 295.207 566.125 305.822 568.882C315.214 571.32 328.107 573.447 333.501 573.447C335.372 573.447 337.109 573.782 337.362 574.192C337.616 574.601 336.736 576.976 335.407 579.469C331.035 587.671 321.042 594.986 310.562 597.655C305.263 599.005 295.661 599.029 290.199 597.706ZM179.059 594.244C172.515 593.239 162.334 589.291 155.005 584.918C139.797 575.843 126.706 557.783 122.099 539.522C116.634 517.858 120.373 493.462 131.563 477.781C137.455 469.524 148.776 460.371 157.12 457.118C160.816 455.677 173.352 451.983 174.576 451.974C175.34 451.968 177.007 454.639 179.338 459.604C197.304 497.873 203.916 508.996 215.836 521.006C226.56 531.811 242.54 541.806 255.583 545.865L259.51 547.087L255.395 553.641C242.217 574.632 225.541 587.789 205.689 592.857C198.517 594.688 186.144 595.333 179.059 594.244ZM482.39 579.968C482.039 579.045 480.914 576.279 479.889 573.819C475.745 563.873 475.25 561.158 475.266 548.48C475.28 537.83 475.496 535.774 477.301 529.254C478.413 525.239 480.66 518.531 482.295 514.349C492.797 487.489 515.535 460.798 537.25 449.84C549.023 443.9 564.508 441.843 575.481 444.762C582.438 446.613 591.743 451.432 596.381 455.587L600.383 459.171L596.402 466.188C581.861 491.821 564.16 514.086 536.018 542.145C513.053 565.042 500.012 575.693 489.773 579.918C484.596 582.054 483.188 582.063 482.39 579.968ZM452.882 578.14C447.884 577.871 423.724 576.05 411.146 574.994C406.637 574.616 399.335 574.08 394.92 573.804L386.892 573.301L387.285 569.834C387.501 567.927 388.357 558.485 389.188 548.852C390.018 539.219 390.858 530.598 391.053 529.694C391.533 527.469 394.796 526.857 405.929 526.904C426.449 526.991 448.022 536.139 463.01 551.109C468.465 556.558 472.889 563.488 476.736 572.609L479.289 578.663L468.321 578.523C462.289 578.445 455.341 578.273 452.882 578.14ZM339.642 576.241C341.816 569.181 345.493 560.003 347.795 555.886C351.345 549.537 358.936 541.519 365.053 537.656C369.81 534.651 380.797 529.807 381.427 530.437C381.605 530.615 380.936 536.592 379.941 543.719C378.946 550.846 377.703 560.451 377.179 565.062L376.227 573.447L371.328 573.469C364.847 573.5 350.378 575.305 344.965 576.757C339.323 578.272 339.025 578.244 339.642 576.241ZM334.009 566.628C316.676 563.692 301.911 559.664 285.193 553.313C277.72 550.474 263.975 544.651 263.409 544.085C262.711 543.388 267.314 535.712 270.423 532.388C279.769 522.396 293.481 518.491 307.191 521.917C324.326 526.2 336.892 536.834 340.305 549.94C341.486 554.476 341.725 561.907 340.796 565.244C340.191 567.417 339.5 567.558 334.009 566.628ZM253.518 535.974C236.01 529.262 223.288 518.908 212.301 502.426C210.332 499.472 204.761 489.006 199.921 479.168C195.081 469.33 189.574 458.669 187.682 455.475C183.674 448.707 183.793 448.524 191.707 449.259C210.657 451.021 242.784 472.509 257.237 493.089C266.294 505.986 268.768 519.133 264.798 533.26C263.133 539.183 262.369 539.366 253.518 535.974ZM635.476 500.854C630.773 499.363 626.407 496.883 623.758 494.197C622.414 492.835 618.907 486.885 615.963 480.973C613.019 475.061 608.451 466.954 605.812 462.957C600.128 454.349 599.007 450.911 599.489 443.578C599.941 436.705 603.193 429.835 607.324 427.028C610.627 424.783 612.403 424.54 611.623 426.439C607.649 436.11 606.796 452.234 609.897 459.04C611.661 462.912 612.341 461.436 613.5 451.22C614.798 439.78 618.072 424.234 619.528 422.599C620.535 421.468 632.023 422.074 638.399 423.594C664.033 429.706 687.293 446.226 692.511 462.027C697.095 475.907 687.265 489.634 667.211 497.356C656.225 501.587 642.542 503.095 635.476 500.854ZM132.224 455.285C126.446 453.73 122.993 451.738 117.903 447.026C102.612 432.869 102.531 408.074 117.697 384.145C128.903 366.465 143.941 358.5 162.525 360.401C166.437 360.802 169.739 361.23 169.863 361.355C169.987 361.478 169.508 365.735 168.798 370.813C166.815 384.995 167.014 416.461 169.184 431.843C170.08 438.196 171.127 444.736 171.511 446.375C171.895 448.014 171.974 449.567 171.687 449.826C170.871 450.56 156.01 454.756 151.091 455.641C145.11 456.718 136.972 456.564 132.224 455.285ZM178.286 440.211C177.136 430.501 176.363 387.079 177.11 374.129C177.51 367.187 177.902 364.767 178.625 364.767C179.161 364.767 183.049 366.494 187.265 368.604C202.048 376.005 212.171 389.004 214.07 403.023C216.873 423.733 203.18 442.337 181.161 447.734L179.233 448.206L178.286 440.211ZM587.06 423.647C580.916 420.49 577.559 415.86 574.357 406.13C569.717 392.032 566.965 372.421 567.4 356.563C567.652 347.388 567.859 346.123 569.734 342.29C571.463 338.756 575.048 334.956 575.831 335.828C576.825 336.936 582.013 348.416 585.393 356.988C593.14 376.633 606.185 422.304 604.524 423.965C604.123 424.366 600.695 424.8 596.905 424.929C591.132 425.127 589.534 424.918 587.06 423.647ZM613.233 414.487C612.185 411.121 610.845 406.522 610.256 404.267C603.469 378.308 595.736 356.473 588.117 341.751L583.726 333.268L588.952 333.642C596.353 334.172 603.939 338.023 610.496 344.58C618.967 353.051 631.795 373.636 634.656 383.348C638.701 397.08 631.914 412.087 618.6 418.85L615.139 420.608L613.233 414.487ZM194.641 366.169C188.772 365.551 178.522 362.419 178.752 361.314C178.825 360.959 181.284 356.476 184.215 351.352C192.554 336.777 204.274 312.434 212.551 292.496C221.816 270.182 225.325 262.618 231.176 252.353C237.842 240.657 237.167 241.282 240.999 243.266C249.239 247.532 262.277 258.119 267.899 265.11C284.756 286.072 281.782 310.776 259.452 335.259C238.722 357.988 216.694 368.494 194.641 366.169ZM166.595 354.752C158.864 349.546 151.534 338.652 148.762 328.248C147.058 321.854 146.993 306.291 148.636 298.064C152.604 278.191 161.447 261.337 174.834 248.13C182.07 240.993 187.252 237.491 194.185 235.054C199.706 233.114 208.8 231.95 214.018 232.516C218.597 233.012 228.788 235.755 229.333 236.638C229.528 236.952 227.697 240.169 225.265 243.788C219.059 253.023 213.342 264.514 204.01 286.513C188.646 322.732 186.998 326.46 179.539 341.85C175.416 350.355 171.673 357.314 171.221 357.314C170.769 357.314 168.687 356.162 166.595 354.752ZM540.167 336.388C517.981 333.352 497.888 317.861 491.909 299.182C489.736 292.393 489.239 281.577 490.813 275.333C493.373 265.178 499.626 255.871 506.655 251.751C512.677 248.222 518.111 247.012 527.947 247.012H536.923L539.426 249.667C543.211 253.68 549.915 265.394 553.125 273.605C554.698 277.63 557.852 287.338 560.132 295.178C565.114 312.304 568.038 320.736 571.37 327.583C572.742 330.403 573.621 332.86 573.322 333.045C573.024 333.229 569.447 334.052 565.373 334.874C556.115 336.742 546.827 337.3 540.167 336.388ZM577.865 322.1C573.32 310.313 572.851 308.91 567.342 290.589C561.005 269.517 556.293 258.474 550.015 249.983C549.118 248.769 548.561 247.598 548.779 247.381C549.519 246.64 560.041 248.525 565.222 250.327C572.684 252.922 577.922 256.352 583.563 262.336C589.701 268.848 592.925 274.207 595.765 282.615C601.333 299.105 598.393 314.476 587.643 325.081C585.046 327.643 582.446 329.739 581.866 329.739C581.216 329.739 579.679 326.804 577.865 322.1ZM345.933 289.906C320.903 286.286 294.438 275.787 271.032 260.192C261.509 253.847 244.681 241.825 244.175 241.005C243.398 239.748 250.719 230.364 258.7 222.388C266.779 214.314 277.729 206.361 289.391 200.098L295.079 197.044L296.756 203.955C300.246 218.331 309.213 242.701 314.793 252.975C318.74 260.243 322.288 265.406 322.63 264.38C323.113 262.93 318.992 247.87 312.065 225.772C308.131 213.222 304.19 197.709 304.213 194.861C304.227 193.155 305.284 192.512 315.578 187.961C354.841 170.6 391.757 161.921 416.405 164.256C420.814 164.674 424.5 165.103 424.597 165.21C424.695 165.317 426.302 171.105 428.17 178.074C437.39 212.475 438.108 231.235 430.914 249.802C423.742 268.315 406.317 282.767 384.316 288.449C375.008 290.853 357.165 291.53 345.933 289.906ZM520.702 244.021C513.075 242.854 506.333 240.894 498.779 237.649C475.588 227.686 450.129 207.33 438.056 189.097C433.665 182.465 428.303 171.847 428.995 171.155C429.481 170.669 441.945 174.187 448.782 176.739C472.459 185.576 495.677 201.076 513.743 220.105C520.62 227.348 532.999 242.84 532.999 244.203C532.999 244.905 525.78 244.797 520.702 244.021ZM542.486 241.277C513.181 198.667 477.942 173.005 432.386 161.097L426.051 159.442L425.192 155.343C422.344 141.766 426.063 123.685 434.23 111.401C443.988 96.7227 458.232 87.513 479.339 82.2342C485.637 80.6593 488.067 80.4663 501.325 80.488C513.849 80.5086 517.444 80.7755 523.824 82.1587C563.434 90.7465 595.529 118.729 607.818 155.391C623.144 201.112 594.389 244.777 548.954 244.777C544.955 244.777 544.857 244.724 542.486 241.277ZM227.542 229.406C214.563 219.022 204.565 203.645 200.867 188.38C199.339 182.074 199.163 166.495 200.549 160.187C205.775 136.396 220.322 116.152 242.339 102.032C247.628 98.6398 260.896 91.9936 262.379 91.9936C263.515 91.9936 275.624 117.034 279.275 126.931C285.275 143.198 292.197 171.654 292.513 181.349L292.646 185.427L287.056 188.386C268.324 198.302 253.48 211.022 237.556 230.803C235.989 232.75 234.483 234.343 234.209 234.343C233.936 234.343 230.935 232.121 227.542 229.406ZM300.279 168.194C295.514 139.265 286.922 113.225 276.043 94.7403C273.956 91.195 272.543 88.1125 272.903 87.8902C274.825 86.702 297.485 81.5802 304.328 80.7873C321.954 78.7449 344.32 80.7712 359.255 85.7637C383.847 93.9846 404.71 111.215 414.649 131.514C417.309 136.946 421.426 148.725 422.421 153.751C422.894 156.137 422.831 156.231 421.131 155.685C416.606 154.235 413.437 153.806 404.065 153.375C387.954 152.635 368.705 155.673 348.282 162.182C334.196 166.67 314.69 174.505 302.707 180.486C302.502 180.589 301.409 175.057 300.279 168.194Z" fill="#211E1C"/>
</svg>
