<svg width="800" height="800" viewBox="0 0 800 800" fill="none" xmlns="http://www.w3.org/2000/svg">
<rect width="800" height="800" rx="200" fill="#E4ECDE"/>
<path d="M582.152 670.284C575.748 672.911 563.521 675.972 555.047 677.069C547.481 678.049 534.292 678.371 530.098 677.678L527.612 677.267L519.726 664.474C509.581 648.018 492.5 615.493 481.248 591.208L477.46 583.032L483.181 580.248C486.328 578.717 495.865 574.158 504.375 570.117C527.85 558.971 537.255 554.033 545.899 548.316C550.234 545.45 554.436 542.548 555.237 541.869C556.589 540.722 557.225 540.93 564.203 544.81C573.138 549.779 587.298 555.892 595.793 558.45C603.938 560.902 610.222 565.112 615 571.318C632.559 594.127 628.771 632.931 606.886 654.435C602.068 659.168 589.291 667.356 582.152 670.284ZM511.188 675.478C500.863 673.795 488.886 668.575 477.802 660.928C463.206 650.859 453.056 639.736 445.472 625.5C442.941 620.749 440.406 615.265 439.838 613.312L438.807 609.762L442.842 606.127C449.477 600.149 454.279 596.626 461.544 592.406L468.431 588.407L470.756 593.317C472.035 596.018 474.618 601.516 476.497 605.535C486.9 627.789 508.337 664.927 515.796 673.62C516.938 674.951 517.7 676.131 517.488 676.242C517.276 676.352 514.441 676.008 511.188 675.478ZM635.427 550.287C629.543 552.365 622.848 553.898 616.792 554.556C606.886 555.63 590.457 553.107 579.314 548.8C572.298 546.088 563.817 542.128 563.953 541.628C564.001 541.451 565.345 539.221 566.938 536.674C575.652 522.736 583.459 501.714 591.428 470.723C599.211 440.456 602.745 416.789 603.161 392.142L603.238 387.575L610.191 391.901C624.028 400.51 633.475 408.701 644.723 421.843C649.524 427.452 651.648 430.584 657.306 440.394C663.34 450.856 664.44 453.188 666.986 460.93C677.189 491.96 672.919 521.611 655.944 537.613C650.811 542.452 641.729 548.062 635.427 550.287ZM406.277 640.144C392.799 644.121 377.115 640.063 368.109 630.27C365.465 627.394 359.669 617.242 359.988 616.046C360.079 615.708 364.665 615.159 370.179 614.825C383.39 614.026 395.515 612.166 405.423 609.419C414.189 606.989 425.65 602.661 430.028 600.129C431.545 599.251 433.113 598.707 433.51 598.921C433.908 599.135 434.309 601.475 434.401 604.122C434.704 612.83 430.029 623.457 422.777 630.543C419.11 634.126 411.33 638.653 406.277 640.144ZM314.463 689.51C308.68 691.766 298.565 693.343 290.565 693.234C273.964 693.01 254.862 684.5 242.55 671.844C227.945 656.83 219.527 635.276 221.246 617.299C222.151 607.832 227.04 595.09 232.284 588.533C234.607 585.629 243.046 576.745 244.035 576.164C244.652 575.801 247.259 577.186 251.481 580.12C284.026 602.741 294.614 608.663 309.925 612.813C323.7 616.547 341.36 617.155 353.849 614.327L357.61 613.475L357.347 620.724C356.508 643.945 349.151 662.451 335.422 675.883C330.461 680.736 320.723 687.068 314.463 689.51ZM553.911 535.524C553.193 534.94 550.981 533.224 548.995 531.709C540.963 525.583 539.286 523.612 533.347 513.317C528.359 504.668 527.569 502.898 525.973 496.76C524.99 492.979 523.665 486.481 523.028 482.319C518.941 455.593 524.862 423.259 537.34 404.173C544.104 393.825 555.705 384.886 565.98 382.104C572.494 380.34 582.307 379.882 588.022 381.076L592.952 382.106L593.016 389.67C593.249 417.297 589.338 443.674 579.673 479.655C571.786 509.017 566.204 523.783 559.879 532.018C556.68 536.182 555.542 536.85 553.911 535.524ZM529.107 547.894C524.925 550.022 504.464 559.886 493.762 564.935C489.925 566.744 483.749 569.737 480.036 571.586L473.285 574.946L471.976 571.948C471.256 570.299 467.518 562.236 463.67 554.029C459.822 545.822 456.456 538.432 456.19 537.606C455.535 535.575 457.896 533.547 466.952 528.359C483.644 518.796 505.446 516.092 524.636 521.204C531.62 523.065 538.464 526.611 545.868 532.207L550.782 535.922L541.816 540.956C536.884 543.725 531.165 546.847 529.107 547.894ZM436.323 599.514C434.773 592.765 433.447 583.59 433.383 579.169C433.283 572.35 435.679 562.279 438.829 556.273C441.279 551.602 447.921 542.513 448.728 542.728C448.955 542.789 451.219 547.953 453.757 554.204C456.295 560.455 459.796 568.832 461.535 572.82L464.699 580.071L460.734 582.39C455.489 585.457 444.595 593.714 440.885 597.434C437.017 601.312 436.762 601.429 436.323 599.514ZM427.238 594.358C411.794 600.112 397.923 603.775 381.374 606.469C373.977 607.674 360.089 609.402 359.364 609.208C358.47 608.97 358.602 600.58 359.565 596.423C362.458 583.927 371.753 574.321 384.486 570.665C400.401 566.096 415.591 568.826 424.513 577.86C427.602 580.987 431.283 586.904 432.096 590.049C432.626 592.096 432.131 592.535 427.238 594.358ZM347.53 607.269C330.171 610.042 314.986 607.612 298.334 599.395C295.349 597.922 285.915 592.044 277.369 586.333C268.823 580.622 259.348 574.556 256.314 572.852C249.884 569.241 249.895 569.037 256.663 565.919C272.867 558.452 309.025 560.807 330.415 570.723C343.819 576.936 351.999 586.443 355.409 599.771C356.839 605.359 356.306 605.867 347.53 607.269ZM640.998 399.457C636.481 400.455 631.775 400.492 628.363 399.556C626.634 399.082 620.994 395.899 615.83 392.484C610.666 389.069 603.153 384.635 599.134 382.63C590.482 378.312 587.958 376.049 584.906 369.872C582.046 364.082 581.461 356.981 583.495 352.764C585.122 349.392 586.449 348.361 586.707 350.268C588.022 359.981 594.899 373.466 600.611 377.534C603.86 379.848 603.719 378.33 599.864 369.496C595.546 359.604 590.905 345.451 591.319 343.441C591.606 342.05 601.212 337.149 607.1 335.389C630.771 328.315 657.402 330.801 669.054 341.174C679.29 350.286 677.757 366.039 665.109 381.72C658.18 390.311 647.784 397.958 640.998 399.457ZM211.221 598.734C205.802 600.183 202.065 600.188 195.723 598.754C176.668 594.444 164.962 574.362 166.036 547.823C166.829 528.216 175.293 514.693 191.266 507.511C194.629 505.999 197.51 504.797 197.669 504.839C197.828 504.882 199.437 508.561 201.245 513.015C206.293 525.455 221.226 550.895 230.208 562.359C233.919 567.094 237.839 571.909 238.92 573.059C240.001 574.209 240.794 575.432 240.682 575.777C240.365 576.756 230.275 587.138 226.699 590.165C222.35 593.846 215.675 597.542 211.221 598.734ZM241.523 564.876C236.032 557.537 215.02 522.664 209.546 511.804C206.612 505.983 205.794 503.835 206.381 503.496C206.816 503.244 210.782 502.82 215.193 502.553C230.664 501.619 244.982 507.415 253.103 517.9C265.101 533.39 262.723 554.915 247.388 569.631L246.046 570.92L241.523 564.876ZM565.464 359.533C558.996 359.855 554.098 357.675 546.932 351.283C536.548 342.02 525.108 327.398 518.017 314.325C513.914 306.761 513.488 305.637 513.21 301.646C512.954 297.967 514.08 293.201 515.124 293.541C516.451 293.973 526.05 300.854 532.817 306.223C548.326 318.527 580.353 349.465 579.785 351.593C579.648 352.106 577.069 354.068 574.054 355.953C569.462 358.823 568.068 359.403 565.464 359.533ZM582.403 339.813C579.972 337.573 576.725 334.47 575.189 332.918C557.495 315.038 540.968 300.949 527.875 292.58L520.329 287.757L524.746 285.607C531 282.563 538.964 282.127 547.363 284.369C558.214 287.267 578.288 297.949 585.169 304.487C594.898 313.732 596.435 329.096 588.806 340.834L586.823 343.886L582.403 339.813ZM220.036 497.115C214.983 499.368 205.195 501.638 204.863 500.634C204.756 500.311 204.646 495.519 204.62 489.985C204.544 474.243 202.626 448.987 199.984 428.921C197.026 406.464 196.323 398.679 196.252 387.603C196.171 374.982 195.916 375.806 199.958 375.617C208.647 375.21 224.197 377.681 232.041 380.714C255.562 389.811 264.745 411.255 258.118 441.605C251.966 469.782 239.023 488.648 220.036 497.115ZM191.917 501.016C183.199 500.421 172.137 495.022 165.003 487.88C160.619 483.491 153.26 470.892 150.731 463.446C144.621 445.456 143.885 427.627 148.549 410.625C151.07 401.437 153.631 396.162 158.113 390.93C161.683 386.763 168.516 381.55 173.016 379.559C176.965 377.812 186.522 375.254 187.379 375.715C187.684 375.878 187.709 379.349 187.434 383.426C186.733 393.834 187.489 405.843 190.244 428.075C194.779 464.68 195.192 468.479 196.364 484.469C197.011 493.307 197.241 500.711 196.874 500.923C196.507 501.136 194.277 501.177 191.917 501.016ZM486.446 310.738C467.017 318.69 443.44 315.551 429.819 303.201C424.868 298.711 419.387 290.168 417.733 284.362C415.043 274.92 415.748 264.431 419.518 257.788C422.748 252.097 426.59 248.565 434.572 243.947L441.855 239.734L445.133 240.712C450.088 242.192 461.028 248.551 467.487 253.707C470.654 256.235 477.77 262.632 483.301 267.924C495.384 279.483 501.715 284.952 507.634 288.944C510.071 290.588 511.937 292.17 511.782 292.46C511.626 292.75 509.11 295.097 506.19 297.676C499.554 303.538 492.278 308.351 486.446 310.738ZM510.33 281.446C501.109 274.015 500.069 273.096 486.998 260.815C471.963 246.69 462.955 239.941 453.874 235.998C452.576 235.434 451.575 234.745 451.649 234.467C451.903 233.518 461.326 230.108 466.376 229.138C473.649 227.741 479.51 228.065 486.897 230.273C494.936 232.676 500.067 235.51 506.319 241.001C518.579 251.769 523.41 265.622 519.664 279.274C518.759 282.573 517.634 285.494 517.163 285.766C516.635 286.071 514.01 284.411 510.33 281.446ZM307.006 364.202C284.994 373.016 258.589 376.92 232.275 375.252C221.569 374.574 202.269 372.719 201.473 372.291C200.252 371.636 201.788 360.584 204.52 350.364C207.286 340.02 212.438 328.425 218.961 317.869L222.143 312.72L226.749 317.54C236.33 327.568 255.047 343.135 264.398 348.852C271.014 352.897 276.316 355.421 276.112 354.428C275.824 353.025 265.41 342.738 249.414 328.058C240.33 319.721 229.849 308.982 228.531 306.661C227.741 305.269 228.297 304.252 234.514 295.725C258.225 263.205 284.108 238.831 305.206 229.155C308.98 227.425 312.173 226.042 312.302 226.083C312.431 226.124 316.453 230.067 321.24 234.845C344.871 258.433 354.261 273.32 357.14 291.763C360.011 310.154 352.655 330.061 337.469 345.002C331.045 351.322 316.883 360.248 307.006 364.202ZM427.288 244.92C420.551 247.554 414.159 249.129 406.507 250.042C383.01 252.844 352.794 248.277 334.437 239.149C327.76 235.829 318.425 229.73 318.662 228.843C318.828 228.221 330.593 225.224 337.34 224.085C360.702 220.142 386.819 221.82 410.413 228.78C419.394 231.429 436.713 238.19 437.353 239.296C437.682 239.865 431.773 243.167 427.288 244.92ZM443.678 232.467C399.893 211.647 359.25 207.366 316.692 219.09L310.774 220.72L308.152 217.797C299.467 208.117 293.997 191.698 294.857 177.896C295.885 161.404 303.12 147.243 317.771 133.051C322.142 128.816 324.023 127.519 334.792 121.312C344.965 115.449 348.007 113.978 353.834 112.106C390.009 100.479 429.19 108.12 456.374 132.101C490.275 162.009 487.439 210.941 450.569 232.271C447.324 234.148 447.219 234.151 443.678 232.467ZM182.531 370.687C167.123 368.353 151.791 360.569 141.624 349.918C137.423 345.517 129.967 332.958 128.13 327.188C121.202 305.429 123.504 282.171 134.741 260.377C137.441 255.142 145.088 243.519 146.291 242.823C147.213 242.29 168.795 256.925 176.403 263.243C188.909 273.627 207.886 293.469 212.693 301.188L214.715 304.435L211.568 309.46C201.023 326.3 194.948 343.592 191.313 367.119C190.955 369.435 190.48 371.435 190.258 371.563C190.036 371.691 186.559 371.297 182.531 370.687ZM212.819 286.867C195.372 265.628 176.175 248.531 158.669 238.638C155.311 236.741 152.717 234.902 152.905 234.553C153.907 232.686 169.891 217.892 175.072 214.036C188.416 204.105 207.517 195.249 221.98 192.289C245.796 187.415 270.815 191.603 288.41 203.41C293.119 206.569 301.989 214.195 305.156 217.806C306.66 219.52 306.653 219.626 305.017 219.982C300.665 220.929 297.892 222.068 290.084 226.118C276.662 233.081 262.469 244.583 248.951 259.453C239.628 269.708 227.476 285.223 220.56 295.702C220.442 295.882 216.959 291.906 212.819 286.867Z" fill="#042B08"/>
</svg>
