<svg width="800" height="800" viewBox="0 0 800 800" fill="none" xmlns="http://www.w3.org/2000/svg">
<path d="M648.469 768.687C639.733 772.27 623.055 776.445 611.496 777.942C601.175 779.279 583.185 779.718 577.464 778.772L574.072 778.212L563.315 760.762C549.477 738.315 526.176 693.948 510.829 660.821L505.662 649.669L513.466 645.872C517.758 643.783 530.767 637.564 542.375 632.052C574.397 616.847 587.225 610.112 599.017 602.314C604.93 598.404 610.662 594.446 611.754 593.52C613.599 591.955 614.466 592.239 623.984 597.531C636.173 604.309 655.488 612.648 667.076 616.137C678.187 619.482 686.758 625.224 693.275 633.69C717.228 664.803 712.06 717.735 682.207 747.067C675.635 753.524 658.207 764.693 648.469 768.687ZM551.668 775.772C537.584 773.476 521.247 766.356 506.128 755.925C486.218 742.19 472.373 727.018 462.027 707.599C458.574 701.118 455.116 693.636 454.342 690.973L452.936 686.131L458.44 681.172C467.49 673.018 474.04 668.212 483.95 662.456L493.345 657L496.516 663.699C498.26 667.383 501.784 674.883 504.347 680.364C518.539 710.721 547.779 761.379 557.954 773.237C559.512 775.053 560.551 776.662 560.262 776.813C559.973 776.964 556.106 776.495 551.668 775.772ZM721.14 605.003C713.113 607.837 703.981 609.929 695.72 610.825C682.207 612.291 659.798 608.849 644.598 602.973C635.028 599.274 623.459 593.873 623.644 593.191C623.71 592.949 625.542 589.908 627.715 586.433C639.603 567.421 650.251 538.746 661.122 496.472C671.738 455.185 676.559 422.901 677.126 389.281L677.232 383.052L686.716 388.953C705.591 400.696 718.477 411.869 733.82 429.796C740.368 437.447 743.266 441.719 750.985 455.1C759.215 469.371 760.716 472.552 764.188 483.113C778.106 525.44 772.282 565.886 749.126 587.715C742.124 594.314 729.736 601.967 721.14 605.003ZM408.562 727.574C390.177 732.998 368.783 727.463 356.499 714.104C352.892 710.182 344.985 696.333 345.422 694.702C345.545 694.241 351.8 693.492 359.323 693.037C377.343 691.946 393.882 689.409 407.398 685.662C419.355 682.347 434.989 676.445 440.96 672.99C443.03 671.793 445.168 671.051 445.711 671.343C446.253 671.634 446.8 674.827 446.926 678.437C447.339 690.316 440.962 704.811 431.07 714.477C426.068 719.365 415.456 725.54 408.562 727.574ZM283.321 794.913C275.434 797.99 261.635 800.14 250.723 799.993C228.077 799.686 202.021 788.078 185.227 770.814C165.305 750.334 153.822 720.934 156.166 696.411C157.401 683.498 164.071 666.116 171.224 657.173C174.392 653.211 185.904 641.093 187.252 640.3C188.095 639.805 191.65 641.694 197.41 645.697C241.804 676.553 256.245 684.632 277.131 690.293C295.921 695.385 320.011 696.216 337.047 692.357L342.177 691.195L341.819 701.084C340.673 732.758 330.639 758.002 311.911 776.324C305.145 782.944 291.861 791.581 283.321 794.913ZM609.946 584.865C608.967 584.069 605.949 581.727 603.24 579.66C592.284 571.304 589.996 568.616 581.895 554.572C575.091 542.775 574.014 540.36 571.837 531.987C570.496 526.831 568.688 517.967 567.82 512.289C562.244 475.832 570.322 431.727 587.342 405.692C596.569 391.577 612.392 379.384 626.408 375.589C635.294 373.182 648.68 372.558 656.476 374.187L663.201 375.592L663.288 385.909C663.606 423.594 658.27 459.575 645.087 508.655C634.329 548.707 626.715 568.849 618.086 580.082C613.723 585.761 612.171 586.674 609.946 584.865ZM576.111 601.739C570.407 604.64 542.497 618.096 527.898 624.983C522.665 627.451 514.239 631.534 509.175 634.055L499.966 638.639L498.18 634.55C497.198 632.301 492.1 621.301 486.851 610.106C481.602 598.911 477.011 588.831 476.647 587.705C475.754 584.935 478.974 582.168 491.327 575.091C514.097 562.047 543.836 558.358 570.012 565.331C579.54 567.869 588.875 572.707 598.974 580.34L605.678 585.407L593.447 592.275C586.72 596.052 578.919 600.31 576.111 601.739ZM449.547 672.152C447.433 662.945 445.624 650.431 445.536 644.399C445.401 635.098 448.669 621.361 452.966 613.167C456.308 606.796 465.368 594.398 466.468 594.692C466.779 594.775 469.866 601.819 473.328 610.346C476.791 618.872 481.566 630.3 483.939 635.739L488.254 645.63L482.846 648.792C475.692 652.976 460.831 664.24 455.77 669.314C450.495 674.604 450.146 674.763 449.547 672.152ZM437.155 665.118C416.089 672.967 397.166 677.964 374.592 681.639C364.503 683.282 345.559 685.639 344.57 685.375C343.351 685.05 343.53 673.605 344.844 667.935C348.791 650.89 361.469 637.786 378.838 632.8C400.548 626.567 421.267 630.291 433.438 642.614C437.651 646.879 442.673 654.951 443.782 659.24C444.504 662.033 443.829 662.632 437.155 665.118ZM328.427 682.73C304.749 686.513 284.035 683.197 261.32 671.989C257.248 669.98 244.379 661.962 232.722 654.172C221.065 646.382 208.141 638.106 204.003 635.783C195.232 630.857 195.246 630.579 204.478 626.325C226.581 616.14 275.904 619.352 305.081 632.878C323.365 641.354 334.524 654.322 339.175 672.502C341.126 680.124 340.398 680.817 328.427 682.73ZM728.739 399.26C722.578 400.621 716.157 400.671 711.504 399.394C709.146 398.747 701.452 394.406 694.408 389.748C687.364 385.09 677.115 379.041 671.634 376.306C659.831 370.417 656.388 367.33 652.226 358.903C648.325 351.006 647.525 341.319 650.3 335.567C652.52 330.967 654.33 329.56 654.682 332.162C656.476 345.411 665.856 363.806 673.648 369.354C678.08 372.511 677.888 370.441 672.629 358.391C666.74 344.897 660.408 325.591 660.973 322.849C661.364 320.953 674.468 314.267 682.499 311.867C714.788 302.216 751.114 305.608 767.009 319.757C780.972 332.186 778.881 353.675 761.628 375.065C752.176 386.783 737.996 397.215 728.739 399.26ZM142.492 671.087C135.1 673.065 130.002 673.071 121.351 671.115C95.3591 665.236 79.3916 637.842 80.8559 601.641C81.9378 574.896 93.4831 556.449 115.272 546.653C119.859 544.59 123.789 542.951 124.006 543.008C124.222 543.066 126.417 548.085 128.883 554.16C135.77 571.129 156.14 605.832 168.392 621.469C173.453 627.928 178.8 634.496 180.275 636.065C181.749 637.634 182.831 639.302 182.679 639.772C182.246 641.108 168.483 655.269 163.605 659.399C157.673 664.42 148.567 669.462 142.492 671.087ZM183.827 624.903C176.336 614.892 147.673 567.322 140.207 552.509C136.205 544.568 135.089 541.639 135.89 541.175C136.484 540.832 141.893 540.253 147.91 539.89C169.014 538.615 188.544 546.522 199.623 560.825C215.988 581.953 212.744 611.315 191.827 631.389L189.995 633.147L183.827 624.903ZM625.705 344.801C616.882 345.24 610.2 342.265 600.426 333.546C586.262 320.911 570.657 300.966 560.984 283.133C555.387 272.816 554.806 271.282 554.427 265.839C554.078 260.82 555.613 254.318 557.037 254.782C558.848 255.372 571.942 264.757 581.173 272.081C602.328 288.866 646.015 331.067 645.24 333.969C645.053 334.67 641.535 337.346 637.423 339.916C631.159 343.831 629.257 344.623 625.705 344.801ZM648.811 317.901C645.495 314.846 641.066 310.613 638.97 308.495C614.834 284.106 592.291 264.887 574.43 253.471L564.138 246.893L570.162 243.96C578.694 239.807 589.557 239.212 601.014 242.271C615.815 246.224 643.198 260.795 652.584 269.714C665.855 282.324 667.952 303.282 657.545 319.294L654.84 323.456L648.811 317.901ZM154.516 532.471C147.623 535.545 134.272 538.641 133.818 537.272C133.673 536.831 133.524 530.295 133.487 522.746C133.384 501.272 130.768 466.821 127.163 439.45C123.129 408.817 122.17 398.198 122.073 383.089C121.962 365.873 121.615 366.997 127.128 366.739C138.98 366.184 160.193 369.555 170.892 373.693C202.976 386.102 215.503 415.352 206.463 456.752C198.071 495.187 180.416 520.923 154.516 532.471ZM116.16 537.793C104.268 536.981 89.1788 529.616 79.4476 519.875C73.4671 513.888 63.4286 496.702 59.9789 486.544C51.6454 462.005 50.6408 437.685 57.0027 414.494C60.4411 401.96 63.935 394.765 70.0489 387.628C74.918 381.944 84.2387 374.832 90.3775 372.117C95.7639 369.735 108.801 366.245 109.97 366.873C110.386 367.096 110.42 371.83 110.045 377.392C109.089 391.589 110.12 407.971 113.877 438.297C120.064 488.228 120.627 493.41 122.225 515.222C123.109 527.277 123.422 537.377 122.922 537.667C122.421 537.956 119.379 538.013 116.16 537.793ZM517.919 278.24C491.416 289.087 459.255 284.806 440.675 267.959C433.922 261.835 426.445 250.181 424.189 242.261C420.52 229.381 421.481 215.074 426.624 206.013C431.03 198.25 436.271 193.431 447.159 187.133L457.094 181.385L461.564 182.72C468.324 184.739 483.246 193.413 492.058 200.446C496.377 203.893 506.084 212.62 513.629 219.838C530.11 235.605 538.747 243.067 546.821 248.512C550.145 250.754 552.691 252.912 552.479 253.307C552.267 253.703 548.834 256.904 544.851 260.423C535.798 268.419 525.874 274.984 517.919 278.24ZM550.498 238.283C537.919 228.147 536.502 226.894 518.671 210.142C498.163 190.874 485.876 181.668 473.489 176.289C471.718 175.52 470.352 174.58 470.454 174.201C470.799 172.906 483.653 168.255 490.541 166.932C500.463 165.026 508.458 165.468 518.534 168.48C529.499 171.758 536.499 175.624 545.027 183.114C561.751 197.802 568.34 216.698 563.231 235.322C561.996 239.821 560.461 243.806 559.818 244.177C559.099 244.593 555.518 242.329 550.498 238.283ZM273.15 351.169C243.124 363.191 207.106 368.517 171.211 366.243C156.607 365.317 130.281 362.786 129.195 362.203C127.53 361.309 129.625 346.233 133.352 332.293C137.124 318.182 144.152 302.367 153.05 287.967L157.391 280.943L163.673 287.519C176.742 301.198 202.273 322.432 215.029 330.231C224.053 335.749 231.287 339.192 231.008 337.837C230.615 335.922 216.409 321.891 194.59 301.866C182.198 290.493 167.902 275.845 166.104 272.678C165.026 270.78 165.785 269.392 174.265 257.761C206.609 213.402 241.915 180.154 270.694 166.956C275.842 164.595 280.197 162.709 280.373 162.765C280.549 162.821 286.036 168.199 292.565 174.717C324.801 206.892 337.609 227.199 341.536 252.357C345.452 277.444 335.418 304.599 314.703 324.978C305.94 333.599 286.623 345.775 273.15 351.169ZM437.223 188.46C428.034 192.053 419.315 194.201 408.876 195.446C376.825 199.269 335.607 193.04 310.568 180.588C301.46 176.059 288.726 167.739 289.049 166.529C289.275 165.681 305.324 161.593 314.527 160.039C346.395 154.66 382.021 156.949 414.205 166.444C426.455 170.057 450.08 179.279 450.952 180.788C451.401 181.564 443.341 186.068 437.223 188.46ZM459.58 171.473C399.854 143.073 344.414 137.233 286.362 153.225L278.289 155.449L274.712 151.462C262.866 138.257 255.404 115.862 256.578 97.0339C257.98 74.5376 267.849 55.2216 287.833 35.8617C293.796 30.0854 296.362 28.3158 311.052 19.8496C324.928 11.8523 329.079 9.84571 337.027 7.29126C386.372 -8.56816 439.818 1.85397 476.898 34.5669C523.141 75.363 519.273 142.11 468.98 171.206C464.553 173.766 464.411 173.771 459.58 171.473ZM103.356 360.015C82.339 356.831 61.4249 346.213 47.5563 331.684C41.8266 325.682 31.6563 308.55 29.1504 300.68C19.7 270.998 22.8392 239.273 38.1683 209.544C41.8506 202.403 52.2819 186.549 53.9231 185.6C55.1804 184.872 84.6197 204.836 94.9983 213.453C112.057 227.618 137.942 254.684 144.5 265.213L147.258 269.642L142.966 276.497C128.581 299.468 120.295 323.056 115.335 355.148C114.847 358.307 114.2 361.035 113.897 361.21C113.594 361.385 108.851 360.847 103.356 360.015ZM144.672 245.678C120.873 216.707 94.6872 193.385 70.8068 179.89C66.2266 177.302 62.6885 174.795 62.9442 174.319C64.3115 171.772 86.115 151.592 93.1817 146.332C111.384 132.785 137.439 120.705 157.168 116.667C189.655 110.019 223.782 115.732 247.784 131.837C254.206 136.147 266.307 146.549 270.627 151.474C272.677 153.813 272.668 153.957 270.437 154.442C264.5 155.734 260.717 157.288 250.067 162.813C231.758 172.311 212.398 188 193.958 208.283C181.241 222.272 164.666 243.435 155.232 257.73C155.07 257.975 150.319 252.551 144.672 245.678Z" fill="var(--e10)"/>
</svg>
