<svg width="857" height="122" viewBox="0 0 857 122" fill="var(--foreground-color)" xmlns="http://www.w3.org/2000/svg">
<path d="M22.4399 80.2721V82.9601C22.4399 84.4108 22.4399 85.8614 22.4399 87.3121C22.5253 88.6774 22.7386 89.9574 23.0799 91.1521C22.6533 95.3334 22.3119 99.5148 22.0559 103.696C21.8853 107.877 21.7999 112.059 21.7999 116.24L18.9839 116.368C18.5573 116.368 18.2159 116.069 17.9599 115.472C17.7893 114.96 17.6186 114.277 17.4479 113.424C17.3626 112.656 17.2773 111.803 17.1919 110.864C17.1919 109.925 17.1919 109.072 17.1919 108.304V105.744H15.9119C15.9119 106.256 15.7839 107.365 15.5279 109.072C15.2719 110.779 14.9306 112.571 14.5039 114.448C14.1626 116.325 13.6933 117.989 13.0959 119.44C12.4986 120.976 11.8159 121.744 11.0479 121.744C10.4506 121.744 9.9386 121.147 9.51193 119.952C9.08527 118.843 8.74393 117.563 8.48793 116.112C8.23193 114.661 8.0186 113.253 7.84793 111.888C7.67727 110.608 7.59193 109.755 7.59193 109.328C6.82393 101.819 6.43993 94.3094 6.43993 86.8001C6.43993 79.2054 6.0986 71.6534 5.41593 64.1441C5.15993 61.5841 4.77593 59.1094 4.26393 56.7201C3.75193 54.2454 3.19726 51.7708 2.59993 49.2961C2.08793 46.8214 1.6186 44.3468 1.19193 41.8721C0.850598 39.3974 0.679932 36.7948 0.679932 34.0641C0.679932 30.2241 1.66127 27.2374 3.62393 25.1041C5.5866 22.8854 8.0186 21.2214 10.9199 20.1121C13.9066 19.0028 17.1066 18.3201 20.5199 18.0641C23.9333 17.8081 27.0906 17.6801 29.9919 17.6801C35.8799 17.6801 41.6399 18.1068 47.2719 18.9601C52.9893 19.8134 58.0666 21.4774 62.5039 23.9521C66.9413 26.4268 70.4826 29.9254 73.1279 34.4481C75.8586 38.8854 77.2239 44.6881 77.2239 51.8561C77.2239 57.9148 76.2853 63.2054 74.4079 67.7281C72.6159 72.2508 70.0559 76.0054 66.7279 78.9921C63.3999 81.9788 59.3466 84.2401 54.5679 85.7761C49.8746 87.2268 44.6266 87.9521 38.8239 87.9521C38.5679 87.9521 38.0133 87.9521 37.1599 87.9521C36.3066 87.8668 35.4106 87.7814 34.4719 87.6961C33.5333 87.5254 32.6799 87.3121 31.9119 87.0561C31.2293 86.7148 30.8879 86.2881 30.8879 85.7761L31.2719 84.8801C32.7226 84.9654 34.1733 85.0508 35.6239 85.1361C37.0746 85.1361 38.5253 85.1361 39.9759 85.1361C42.5359 85.1361 45.0533 85.0081 47.5279 84.7521C50.0879 84.4961 52.5626 83.9841 54.9519 83.2161C57.3413 82.4481 59.5599 81.3814 61.6079 80.0161C63.4853 78.7361 65.2346 77.1148 66.8559 75.1521C65.1493 77.1148 63.3146 78.7361 61.3519 80.0161C59.2186 81.3814 56.9146 82.4054 54.4399 83.0881C52.0506 83.7708 49.5333 84.2401 46.8879 84.4961C44.3279 84.6668 41.7253 84.7521 39.0799 84.7521C37.8853 84.7521 36.6479 84.7521 35.3679 84.7521C34.0879 84.6668 32.8506 84.5814 31.6559 84.4961L31.5279 82.0641C30.8453 82.1495 30.2479 82.2348 29.7359 82.3201C29.2239 82.3201 28.7546 82.3201 28.3279 82.3201C27.3039 82.3201 26.3653 82.1921 25.5119 81.9361C24.6586 81.5948 23.6346 81.0401 22.4399 80.2721ZM34.0879 32.2721C31.1866 32.2721 28.1146 32.4001 24.8719 32.6561C21.6293 32.8268 18.6426 33.3814 15.9119 34.3201L15.2719 35.3441C18.5146 34.4054 21.5013 33.8508 24.2319 33.6801C26.9626 33.5094 29.5653 33.4241 32.0399 33.4241H32.5519C36.2213 33.4241 39.8479 33.5521 43.4319 33.8081C47.0159 33.9788 50.2159 34.7041 53.0319 35.9841C55.8479 37.1788 58.1093 39.0988 59.8159 41.7441C61.6079 44.3041 62.5039 47.9734 62.5039 52.7521C62.5039 54.2028 62.3759 55.5681 62.1199 56.8481C61.8639 58.1281 61.5226 59.4081 61.0959 60.6881C61.4373 59.4934 61.6933 58.2988 61.8639 57.1041C62.1199 55.8241 62.2479 54.5441 62.2479 53.2641C62.2479 50.0214 61.6933 47.0774 60.5839 44.4321C59.4746 41.7868 57.6826 39.3974 55.2079 37.2641L54.3119 36.7521C53.0319 36.1548 51.4106 35.6854 49.4479 35.3441C47.5706 35.0028 45.5653 34.7468 43.4319 34.5761C41.2986 34.3201 39.1226 34.1921 36.9039 34.1921C34.7706 34.1068 32.7653 34.0641 30.8879 34.0641H27.3039C25.7679 34.0641 23.9759 34.1921 21.9279 34.4481C19.9653 34.7041 18.2586 35.0454 16.8079 35.4721C16.8079 37.6054 16.9786 39.7388 17.3199 41.8721C17.7466 43.9201 18.1733 45.9681 18.5999 48.0161L20.0079 54.1601C20.5199 56.2081 20.8613 58.2561 21.0319 60.3041L22.1839 76.3041C22.7813 75.8774 23.4213 75.5361 24.1039 75.2801C24.8719 74.9388 25.8533 74.7681 27.0479 74.7681H27.6879C29.5653 75.3654 31.4853 75.7068 33.4479 75.7921C35.4959 75.8774 37.5013 75.9201 39.4639 75.9201C43.5599 75.9201 47.1866 75.5361 50.3439 74.7681C53.5866 74.0001 56.3173 72.7201 58.5359 70.9281C60.7546 69.0508 62.4186 66.6188 63.5279 63.6321C64.7226 60.5601 65.3199 56.8054 65.3199 52.3681C65.3199 50.4054 64.9786 48.2721 64.2959 45.9681C63.6986 43.5788 62.7599 41.3601 61.4799 39.3121C60.1999 37.2641 58.5786 35.5574 56.6159 34.1921C54.7386 32.8268 52.5626 32.1014 50.0879 32.0161C52.4773 32.2721 54.6106 33.0401 56.4879 34.3201C58.3653 35.6001 59.9439 37.2214 61.2239 39.1841C62.5039 41.1468 63.4426 43.3228 64.0399 45.7121C64.7226 48.0161 65.0639 50.2774 65.0639 52.4961C65.0639 60.2614 63.1866 65.9788 59.4319 69.6481C55.6773 73.3175 49.9173 75.1521 42.1519 75.1521C40.2746 75.1521 38.3973 75.0668 36.5199 74.8961L30.8879 74.3841C33.7039 73.7014 36.5626 73.3174 39.4639 73.2321C42.4506 73.0614 45.2666 72.7201 47.9119 72.2081C50.6426 71.6961 53.0746 70.7574 55.2079 69.3921C57.4266 67.9414 59.2186 65.5521 60.5839 62.2241L61.7359 62.6081C62.7599 59.7921 63.2719 56.8481 63.2719 53.7761C63.2719 49.0828 62.4613 45.3281 60.8399 42.5121C59.3039 39.6961 57.2133 37.5201 54.5679 35.9841C51.9226 34.4481 48.8079 33.4668 45.2239 33.0401C41.7253 32.5281 38.0133 32.2721 34.0879 32.2721ZM74.6639 51.6001C74.6639 48.1014 74.1946 44.9014 73.2559 42.0001C72.3173 39.0134 70.8666 36.1121 68.9039 33.2961C70.6959 36.1121 72.0186 39.1414 72.8719 42.3841C73.8106 45.5414 74.2799 48.7841 74.2799 52.1121C74.2799 57.4881 73.2133 62.6508 71.0799 67.6001C72.1893 65.2108 73.0426 62.6934 73.6399 60.0481C74.3226 57.2321 74.6639 54.4161 74.6639 51.6001ZM53.1599 22.6721C54.3546 23.0988 55.5066 23.4828 56.6159 23.8241C57.8106 24.0801 59.0053 24.4641 60.1999 24.9761C58.0666 23.8668 55.7199 23.0988 53.1599 22.6721ZM65.3199 28.8161C64.9786 28.1334 64.2106 27.4081 63.0159 26.6401C61.9066 25.9574 61.0106 25.4454 60.3279 25.1041C61.1813 25.7868 61.9919 26.3414 62.7599 26.7681C63.6133 27.2801 64.4666 27.9628 65.3199 28.8161Z" fill="var(--foreground-color)"/>
<path d="M129.682 108.304C126.439 109.413 123.965 110.011 122.258 110.096C120.551 110.267 119.058 110.395 117.778 110.48C112.999 110.48 108.69 109.584 104.85 107.792C101.01 106 97.7246 103.568 94.9939 100.496C92.2633 97.4241 90.1299 93.8401 88.5939 89.7441C87.1433 85.5628 86.4179 81.1254 86.4179 76.4321C86.4179 73.7014 86.6739 70.8854 87.1859 67.9841C87.6979 64.9974 88.4659 62.0961 89.4899 59.2801C90.5139 56.3788 91.8366 53.6908 93.4579 51.2161C94.9939 48.7414 96.8286 46.5228 98.9619 44.5601C96.7433 46.3521 94.8659 48.4854 93.3299 50.9601C91.7086 53.4348 90.3433 56.1228 89.2339 59.0241C88.1246 61.8401 87.3139 64.7841 86.8019 67.8561C86.2899 70.8428 86.0339 73.7441 86.0339 76.5601C86.0339 80.1441 86.5886 83.9841 87.6979 88.0801C88.8926 92.0908 90.7699 95.8454 93.3299 99.3441C95.8899 102.757 99.1753 105.616 103.186 107.92C107.282 110.224 112.231 111.376 118.034 111.376C120.765 111.376 123.623 110.992 126.61 110.224C123.367 112.357 119.741 113.424 115.73 113.424C112.487 113.424 109.415 112.912 106.514 111.888C103.698 110.949 101.053 109.584 98.5779 107.792C96.1886 106.085 94.0126 104.037 92.0499 101.648C90.0873 99.2588 88.4233 96.6988 87.0579 93.9681L88.2099 92.9441C86.7593 90.0428 85.6926 87.1414 85.0099 84.2401C84.4126 81.3388 84.1139 78.3948 84.1139 75.4081C84.1139 71.0561 84.7113 66.8748 85.9059 62.8641C87.1859 58.8534 88.8499 55.0561 90.8979 51.4721L93.9699 47.2481C94.4819 46.3094 95.2073 45.3708 96.1459 44.4321C97.1699 43.4934 98.2793 42.5974 99.4739 41.7441C100.669 40.8054 101.906 39.9948 103.186 39.3121C104.551 38.5441 105.831 37.8614 107.026 37.2641C110.098 35.7281 113.17 34.3628 116.242 33.1681C119.314 31.8881 122.898 30.9494 126.994 30.3521L126.482 29.9681C118.631 30.7361 111.975 32.6561 106.514 35.7281C101.053 38.7148 96.6153 42.3841 93.2019 46.7361C89.7886 51.0881 87.3139 55.8668 85.7779 61.0721C84.2419 66.1921 83.4739 71.2268 83.4739 76.1761C83.4739 78.8215 83.6873 81.5094 84.1139 84.2401C84.6259 86.8854 85.3513 89.5308 86.2899 92.1761C84.1566 87.0561 83.0899 81.6374 83.0899 75.9201C83.0899 70.2881 84.0286 64.6988 85.9059 59.1521C87.7833 53.6054 90.7273 48.4854 94.7379 43.7921C99.8579 39.0988 105.447 35.5148 111.506 33.0401C117.565 30.4801 123.41 29.2001 129.042 29.2001C130.834 29.2001 132.669 29.4988 134.546 30.0961C136.423 30.6934 138.13 31.6321 139.666 32.9121C141.202 34.1068 142.439 35.6854 143.378 37.6481C144.402 39.6108 144.914 42.0001 144.914 44.8161C144.914 47.1201 144.359 49.9361 143.25 53.2641C142.141 56.5921 140.477 59.8348 138.258 62.9921C136.125 66.0641 133.437 68.7094 130.194 70.9281C126.951 73.0614 123.197 74.1281 118.93 74.1281H114.706C111.549 73.4454 108.647 72.6774 106.002 71.8241C103.442 70.8854 101.01 70.1601 98.7059 69.6481C98.3646 71.0135 98.1513 72.3361 98.0659 73.6161C98.0659 74.8108 98.0659 76.0054 98.0659 77.2001C98.0659 79.6748 98.3219 82.1068 98.8339 84.4961C99.4313 86.8001 100.327 88.9334 101.522 90.8961C102.717 92.8588 104.21 94.5228 106.002 95.8881C107.879 97.1681 110.141 97.9788 112.786 98.3201C114.407 98.6614 115.815 98.8748 117.01 98.9601C118.205 98.9601 119.186 99.0028 119.954 99.0881C120.807 99.0881 121.405 99.2161 121.746 99.4721C122.173 99.6428 122.386 100.027 122.386 100.624C121.533 100.88 120.637 101.051 119.698 101.136C118.845 101.221 117.949 101.264 117.01 101.264C114.023 101.264 111.335 100.795 108.946 99.8561C106.557 98.8321 104.509 97.6801 102.802 96.4001C104.765 98.3628 107.111 99.7708 109.842 100.624C112.573 101.392 115.261 101.776 117.906 101.776C119.357 101.776 120.85 101.648 122.386 101.392C122.215 101.904 122.13 102.203 122.13 102.288C122.13 102.8 122.343 103.141 122.77 103.312C123.111 103.227 123.709 103.013 124.562 102.672C125.415 102.245 126.269 101.861 127.122 101.52C128.061 101.093 128.957 100.752 129.81 100.496C130.663 100.155 131.261 99.9841 131.602 99.9841C132.029 99.9841 132.413 100.069 132.754 100.24C133.095 100.325 133.266 100.795 133.266 101.648C133.266 102.501 132.967 103.525 132.37 104.72C131.773 105.915 130.877 107.109 129.682 108.304ZM112.018 57.6161L114.834 58.1281C115.773 58.2988 116.626 58.3841 117.394 58.3841C118.247 58.3841 119.229 58.1281 120.338 57.6161C121.533 57.0188 122.685 56.2081 123.794 55.1841C124.989 54.1601 126.013 52.8801 126.866 51.3441C127.805 49.8081 128.487 48.0588 128.914 46.0961L129.17 45.3281C127.975 45.3281 126.183 45.6268 123.794 46.2241C121.405 46.8214 118.93 47.6321 116.37 48.6561C113.81 49.5948 111.421 50.7468 109.202 52.1121C106.983 53.3921 105.447 54.8001 104.594 56.3361C105.874 56.5921 107.111 56.8481 108.306 57.1041C109.586 57.2748 110.823 57.4454 112.018 57.6161ZM106.13 67.0881C106.301 66.9174 106.386 66.6614 106.386 66.3201C106.471 65.9788 106.514 65.7228 106.514 65.5521L100.498 63.3761L99.8579 65.1681L106.13 67.0881ZM102.546 96.1441C101.949 95.4614 101.351 94.7788 100.754 94.0961C100.242 93.4988 99.8153 92.9014 99.4739 92.3041C100.242 93.7548 101.266 95.0348 102.546 96.1441Z" fill="var(--foreground-color)"/>
<path d="M258.287 41.4881H260.463C265.412 41.4881 270.319 42.3841 275.183 44.1761C280.047 45.8828 284.399 48.3148 288.239 51.4721C292.079 54.6294 295.151 58.4268 297.455 62.8641C299.844 67.2161 301.039 71.9948 301.039 77.2001C301.039 82.7468 300.271 87.3974 298.735 91.1521C297.199 94.8214 295.023 97.8508 292.207 100.24C289.391 102.629 286.02 104.507 282.095 105.872C278.17 107.152 273.818 108.219 269.039 109.072C272.026 108.816 275.354 108.261 279.023 107.408C282.778 106.555 286.276 105.061 289.519 102.928C292.847 100.709 295.62 97.6801 297.839 93.8401C300.058 89.9148 301.167 84.7948 301.167 78.4801C301.167 70.7148 298.991 63.7174 294.639 57.4881C290.287 51.2588 283.802 46.5654 275.183 43.4081C273.05 42.4694 270.831 41.7441 268.527 41.2321C266.308 40.6348 264.047 40.3361 261.743 40.3361C262.511 39.9094 263.535 39.6961 264.815 39.6961C266.095 39.6108 267.119 39.5681 267.887 39.5681C271.215 39.5681 274.628 40.2508 278.127 41.6161C281.711 42.9814 285.082 44.8588 288.239 47.2481C291.396 49.6374 294.17 52.4534 296.559 55.6961C299.034 58.8534 300.868 62.2241 302.063 65.8081C301.636 65.9788 301.252 66.3201 300.911 66.8321C301.594 68.9654 302.106 71.0561 302.447 73.1041C302.788 75.1521 302.959 77.2428 302.959 79.3761C302.959 81.7654 302.746 84.1548 302.319 86.5441C301.978 88.9334 301.21 91.2801 300.015 93.5841C298.906 95.8881 297.284 98.0641 295.151 100.112C293.103 102.16 290.372 103.995 286.959 105.616C283.546 107.237 279.364 108.56 274.415 109.584C269.466 110.693 263.578 111.419 256.751 111.76C256.324 112.016 255.727 112.144 254.959 112.144C254.191 112.229 253.423 112.272 252.655 112.272H250.863C249.583 112.272 248.26 112.016 246.895 111.504C245.53 111.077 244.292 110.267 243.183 109.072C242.074 107.963 241.178 106.469 240.495 104.592C239.812 102.629 239.471 100.197 239.471 97.2961V95.8881C239.386 96.2294 239.258 96.4001 239.087 96.4001C238.831 96.4001 238.703 96.3148 238.703 96.1441V96.7841C238.703 98.3201 238.788 100.069 238.959 102.032C239.13 103.909 239.599 105.701 240.367 107.408C241.22 109.115 242.5 110.523 244.207 111.632C245.999 112.827 248.516 113.424 251.759 113.424C252.527 113.424 253.295 113.381 254.063 113.296C254.916 113.296 255.812 113.168 256.751 112.912C262.98 112.656 268.911 111.973 274.543 110.864C280.26 109.755 285.295 107.963 289.647 105.488C293.999 102.928 297.455 99.4721 300.015 95.1201C302.575 90.7681 303.855 85.1788 303.855 78.3521C303.855 76.1334 303.684 73.8721 303.343 71.5681C303.428 72.5068 303.556 73.4028 303.727 74.2561C303.898 75.6214 303.983 76.9868 303.983 78.3521C303.983 80.2294 303.855 82.3628 303.599 84.7521C303.428 87.1414 302.874 89.5734 301.935 92.0481C301.082 94.5228 299.802 96.9548 298.095 99.3441C296.388 101.733 293.999 103.824 290.927 105.616C287.77 107.493 284.484 108.944 281.071 109.968C277.743 111.077 274.543 111.888 271.471 112.4C268.484 112.997 265.754 113.339 263.279 113.424C260.89 113.595 259.098 113.68 257.903 113.68H256.367C255.599 113.68 254.788 113.723 253.935 113.808C253.167 113.979 252.314 114.064 251.375 114.064H250.735C249.967 114.064 248.986 113.979 247.791 113.808C246.682 113.637 245.487 113.211 244.207 112.528C243.012 111.845 241.903 110.736 240.879 109.2C239.855 107.749 239.13 105.659 238.703 102.928C238.532 101.989 238.404 101.051 238.319 100.112C238.234 99.1734 238.106 98.3201 237.935 97.5521C237.935 95.8454 238.063 94.2668 238.319 92.8161C238.575 91.2801 238.703 90.0428 238.703 89.1041V65.6801L234.095 41.4881C234.18 39.7814 234.266 37.9041 234.351 35.8561C234.522 33.8081 234.65 31.7174 234.735 29.5841C234.906 27.3654 235.034 25.1894 235.119 23.0561C235.204 20.9228 235.247 18.8748 235.247 16.9121C235.247 16.2294 235.204 15.5894 235.119 14.9921C235.119 14.3094 235.119 13.6694 235.119 13.0721C235.375 13.3281 235.631 13.4561 235.887 13.4561C236.228 13.4561 236.57 13.3708 236.911 13.2001C237.338 12.9441 237.722 12.8161 238.063 12.8161C238.319 12.8161 238.575 12.9441 238.831 13.2001C239.087 13.4561 239.3 13.9254 239.471 14.6081C239.727 15.2908 239.898 16.3148 239.983 17.6801C240.068 18.9601 240.111 20.6241 240.111 22.6721H241.263C241.604 17.9788 242.202 14.3094 243.055 11.6641C243.994 9.01878 244.932 7.69611 245.871 7.69611C246.98 7.69611 247.791 9.06144 248.303 11.7921C248.815 14.5228 249.156 17.9788 249.327 22.1601C249.583 26.2561 249.796 30.7788 249.967 35.7281C250.138 40.5921 250.479 45.2001 250.991 49.5521C251.93 54.5868 252.698 59.9628 253.295 65.6801C253.892 71.3121 254.276 76.8161 254.447 82.1921C254.447 86.2028 254.404 89.0614 254.319 90.7681C254.234 92.4748 254.106 93.7121 253.935 94.4801V97.9361L258.287 97.5521C261.018 97.5521 263.834 97.4241 266.735 97.1681C269.636 96.8268 272.068 96.3148 274.031 95.6321C277.615 95.0348 280.388 94.1814 282.351 93.0721C284.399 91.8774 285.935 90.5975 286.959 89.2321C287.983 87.8668 288.623 86.4161 288.879 84.8801C289.135 83.3441 289.263 81.8934 289.263 80.5281C289.263 77.8828 289.05 75.3654 288.623 72.9761C288.282 70.5014 287.556 68.2401 286.447 66.1921C285.338 64.0588 283.716 62.1388 281.583 60.4321C279.45 58.6401 276.676 57.0614 273.263 55.6961C269.508 54.2454 266.778 53.3921 265.071 53.1361C263.45 52.8801 262.639 52.3681 262.639 51.6001C262.639 51.5148 262.724 51.2161 262.895 50.7041C266.479 50.8748 270.063 51.7281 273.647 53.2641C276.975 54.7148 280.004 56.5494 282.735 58.7681C280.09 56.5494 277.146 54.7148 273.903 53.2641C270.404 51.6428 266.863 50.6614 263.279 50.3201C263.535 49.9788 263.663 49.5521 263.663 49.0401C263.663 48.7841 263.535 48.4428 263.279 48.0161H261.103C260.506 48.0161 259.866 48.0588 259.183 48.1441C258.5 48.2294 257.946 48.3148 257.519 48.4001C255.471 48.2294 254.02 47.9308 253.167 47.5041C252.399 47.0774 252.015 46.5654 252.015 45.9681C252.015 45.1148 252.698 44.2614 254.063 43.4081C255.514 42.5548 256.922 41.9148 258.287 41.4881ZM291.951 78.0961C291.951 82.0214 291.482 85.2214 290.543 87.6961C289.604 90.1708 288.282 92.0908 286.575 93.4561C288.794 91.9201 290.244 89.9574 290.927 87.5681C291.695 85.1788 292.079 82.1495 292.079 78.4801C292.079 77.8828 292.036 77.3281 291.951 76.8161C291.951 76.3895 291.908 75.9201 291.823 75.4081C291.823 75.9201 291.823 76.3895 291.823 76.8161C291.908 77.2428 291.951 77.6694 291.951 78.0961ZM283.119 59.1521C282.948 59.0668 282.82 58.9388 282.735 58.7681C282.906 58.8534 283.034 58.9814 283.119 59.1521Z" fill="var(--foreground-color)"/>
<path d="M348.205 95.1201C347.693 95.1201 347.181 95.3761 346.669 95.8881C344.877 96.5708 343 97.1681 341.037 97.6801C339.16 98.1068 337.197 98.3201 335.149 98.3201C329.346 98.3201 324.994 96.6561 322.093 93.3281C319.192 89.9148 317.741 85.0081 317.741 78.6081C317.741 75.5361 317.869 72.4641 318.125 69.3921C318.381 66.4054 318.552 63.6321 318.637 61.0721C318.381 63.7174 318.082 66.3628 317.741 69.0081C317.314 71.8241 317.101 74.7681 317.101 77.8401C317.101 79.3761 317.229 81.3388 317.485 83.7281C317.826 86.1174 318.594 88.4641 319.789 90.7681C320.984 92.9868 322.818 94.9494 325.293 96.6561C327.768 98.2774 331.181 99.0881 335.533 99.0881C337.581 99.0881 339.544 98.8748 341.421 98.4481C343.384 97.9361 345.261 97.3388 347.053 96.6561C345.858 98.1068 344.237 99.2588 342.189 100.112C340.226 100.965 337.88 101.392 335.149 101.392C331.65 101.392 328.237 100.667 324.909 99.2161C321.666 97.7654 319.192 95.3334 317.485 91.9201L318.253 90.5121C316.717 87.7814 315.864 85.3494 315.693 83.2161C315.522 80.9974 315.352 78.8214 315.181 76.6881L317.357 54.2881C317.784 50.4481 318.082 46.6081 318.253 42.7681L317.869 42.5121C317.186 46.5228 316.632 50.3628 316.205 54.0321C315.778 57.6161 315.437 61.1574 315.181 64.6561V61.3281C315.693 57.4028 316.162 53.5628 316.589 49.8081C317.016 45.9681 317.57 42.0854 318.253 38.1601C318.936 34.2348 319.789 30.1388 320.813 25.8721C321.922 21.6054 323.373 17.0401 325.165 12.1761C327.554 8.93344 328.962 5.73344 329.389 2.57611C329.645 2.57611 329.901 2.61878 330.157 2.70411C330.413 2.78944 330.925 2.83211 331.693 2.83211C332.205 2.83211 332.632 2.96011 332.973 3.21611C333.4 3.38677 333.613 3.81344 333.613 4.49611C333.613 5.26411 333.357 6.41611 332.845 7.95211C333.016 7.95211 333.272 8.03744 333.613 8.20811C333.954 8.29344 334.21 8.33611 334.381 8.33611C335.576 6.28811 336.642 4.53878 337.581 3.08811C338.605 1.63744 339.586 0.912109 340.525 0.912109C341.122 0.912109 341.634 1.29611 342.061 2.06411C342.573 2.74678 342.829 3.89878 342.829 5.52011C342.658 8.59211 342.146 11.4934 341.293 14.2241C340.525 16.9548 339.672 19.6001 338.733 22.1601C337.794 24.7201 336.856 27.3228 335.917 29.9681C335.064 32.6134 334.424 35.3868 333.997 38.2881C333.485 41.6161 332.973 45.0294 332.461 48.5281C331.949 51.9414 331.48 55.3548 331.053 58.7681C330.626 62.1814 330.2 65.4668 329.773 68.6241C329.432 71.7814 329.176 74.7254 329.005 77.4561C329.005 79.9308 329.389 82.4908 330.157 85.1361C330.584 85.8188 330.968 86.3308 331.309 86.6721C331.65 86.9281 332.248 87.0561 333.101 87.0561C334.125 87.0561 335.234 86.9281 336.429 86.6721C337.709 86.4161 338.818 86.2881 339.757 86.2881C340.354 86.2881 340.781 86.3734 341.037 86.5441C341.293 86.7148 341.506 87.0134 341.677 87.4401C340.482 88.1228 339.202 88.6348 337.837 88.9761C336.472 89.3174 335.192 89.4881 333.997 89.4881H332.205C331.864 89.4881 331.565 89.4881 331.309 89.4881C332.248 89.6588 333.442 89.7441 334.893 89.7441C337.112 89.7441 339.373 89.2321 341.677 88.2081C341.677 88.9761 341.933 89.6161 342.445 90.1281C342.701 90.0428 343.298 89.7441 344.237 89.2321C345.176 88.7201 345.986 88.4641 346.669 88.4641C348.717 88.4641 349.741 89.3174 349.741 91.0241C349.741 91.2801 349.656 91.6641 349.485 92.1761C349.314 92.6881 348.888 93.6695 348.205 95.1201ZM314.285 77.9681C314.285 77.3708 314.285 76.6028 314.285 75.6641C314.37 74.7254 314.456 73.7868 314.541 72.8481L314.797 69.9041C314.882 68.8801 314.968 67.9841 315.053 67.2161C314.968 68.4961 314.882 70.1174 314.797 72.0801C314.797 73.9574 314.797 75.3654 314.797 76.3041V81.4241C314.797 82.1068 314.797 82.8321 314.797 83.6001C314.882 84.3681 314.968 85.0934 315.053 85.7761C314.712 84.4108 314.498 83.0881 314.413 81.8081C314.328 80.4428 314.285 79.1628 314.285 77.9681ZM326.829 77.4561C326.829 75.4934 326.957 73.5734 327.213 71.6961C327.469 69.8188 327.682 67.8988 327.853 65.9361C327.426 67.8988 327.085 69.8188 326.829 71.6961C326.658 73.5734 326.488 75.4934 326.317 77.4561V79.2481C326.317 79.8454 326.36 80.4854 326.445 81.1681V80.2721C326.445 79.8454 326.488 79.3761 326.573 78.8641C326.658 78.3521 326.744 77.8828 326.829 77.4561ZM315.053 67.0881C315.053 66.9174 315.053 66.7894 315.053 66.7041C315.138 66.6188 315.181 66.5334 315.181 66.4481C315.181 66.7894 315.138 67.0028 315.053 67.0881Z" fill="var(--foreground-color)"/>
<path d="M402.692 108.304C399.449 109.413 396.975 110.011 395.268 110.096C393.561 110.267 392.068 110.395 390.788 110.48C386.009 110.48 381.7 109.584 377.86 107.792C374.02 106 370.735 103.568 368.004 100.496C365.273 97.4241 363.14 93.8401 361.604 89.7441C360.153 85.5628 359.428 81.1254 359.428 76.4321C359.428 73.7014 359.684 70.8854 360.196 67.9841C360.708 64.9974 361.476 62.0961 362.5 59.2801C363.524 56.3788 364.847 53.6908 366.468 51.2161C368.004 48.7414 369.839 46.5228 371.972 44.5601C369.753 46.3521 367.876 48.4854 366.34 50.9601C364.719 53.4348 363.353 56.1228 362.244 59.0241C361.135 61.8401 360.324 64.7841 359.812 67.8561C359.3 70.8428 359.044 73.7441 359.044 76.5601C359.044 80.1441 359.599 83.9841 360.708 88.0801C361.903 92.0908 363.78 95.8454 366.34 99.3441C368.9 102.757 372.185 105.616 376.196 107.92C380.292 110.224 385.241 111.376 391.044 111.376C393.775 111.376 396.633 110.992 399.62 110.224C396.377 112.357 392.751 113.424 388.74 113.424C385.497 113.424 382.425 112.912 379.524 111.888C376.708 110.949 374.063 109.584 371.588 107.792C369.199 106.085 367.023 104.037 365.06 101.648C363.097 99.2588 361.433 96.6988 360.068 93.9681L361.22 92.9441C359.769 90.0428 358.703 87.1414 358.02 84.2401C357.423 81.3388 357.124 78.3948 357.124 75.4081C357.124 71.0561 357.721 66.8748 358.916 62.8641C360.196 58.8534 361.86 55.0561 363.908 51.4721L366.98 47.2481C367.492 46.3094 368.217 45.3708 369.156 44.4321C370.18 43.4934 371.289 42.5974 372.484 41.7441C373.679 40.8054 374.916 39.9948 376.196 39.3121C377.561 38.5441 378.841 37.8614 380.036 37.2641C383.108 35.7281 386.18 34.3628 389.252 33.1681C392.324 31.8881 395.908 30.9494 400.004 30.3521L399.492 29.9681C391.641 30.7361 384.985 32.6561 379.524 35.7281C374.063 38.7148 369.625 42.3841 366.212 46.7361C362.799 51.0881 360.324 55.8668 358.788 61.0721C357.252 66.1921 356.484 71.2268 356.484 76.1761C356.484 78.8215 356.697 81.5094 357.124 84.2401C357.636 86.8854 358.361 89.5308 359.3 92.1761C357.167 87.0561 356.1 81.6374 356.1 75.9201C356.1 70.2881 357.039 64.6988 358.916 59.1521C360.793 53.6054 363.737 48.4854 367.748 43.7921C372.868 39.0988 378.457 35.5148 384.516 33.0401C390.575 30.4801 396.42 29.2001 402.052 29.2001C403.844 29.2001 405.679 29.4988 407.556 30.0961C409.433 30.6934 411.14 31.6321 412.676 32.9121C414.212 34.1068 415.449 35.6854 416.388 37.6481C417.412 39.6108 417.924 42.0001 417.924 44.8161C417.924 47.1201 417.369 49.9361 416.26 53.2641C415.151 56.5921 413.487 59.8348 411.268 62.9921C409.135 66.0641 406.447 68.7094 403.204 70.9281C399.961 73.0614 396.207 74.1281 391.94 74.1281H387.716C384.559 73.4454 381.657 72.6774 379.012 71.8241C376.452 70.8854 374.02 70.1601 371.716 69.6481C371.375 71.0135 371.161 72.3361 371.076 73.6161C371.076 74.8108 371.076 76.0054 371.076 77.2001C371.076 79.6748 371.332 82.1068 371.844 84.4961C372.441 86.8001 373.337 88.9334 374.532 90.8961C375.727 92.8588 377.22 94.5228 379.012 95.8881C380.889 97.1681 383.151 97.9788 385.796 98.3201C387.417 98.6614 388.825 98.8748 390.02 98.9601C391.215 98.9601 392.196 99.0028 392.964 99.0881C393.817 99.0881 394.415 99.2161 394.756 99.4721C395.183 99.6428 395.396 100.027 395.396 100.624C394.543 100.88 393.647 101.051 392.708 101.136C391.855 101.221 390.959 101.264 390.02 101.264C387.033 101.264 384.345 100.795 381.956 99.8561C379.567 98.8321 377.519 97.6801 375.812 96.4001C377.775 98.3628 380.121 99.7708 382.852 100.624C385.583 101.392 388.271 101.776 390.916 101.776C392.367 101.776 393.86 101.648 395.396 101.392C395.225 101.904 395.14 102.203 395.14 102.288C395.14 102.8 395.353 103.141 395.78 103.312C396.121 103.227 396.719 103.013 397.572 102.672C398.425 102.245 399.279 101.861 400.132 101.52C401.071 101.093 401.967 100.752 402.82 100.496C403.673 100.155 404.271 99.9841 404.612 99.9841C405.039 99.9841 405.423 100.069 405.764 100.24C406.105 100.325 406.276 100.795 406.276 101.648C406.276 102.501 405.977 103.525 405.38 104.72C404.783 105.915 403.887 107.109 402.692 108.304ZM385.028 57.6161L387.844 58.1281C388.783 58.2988 389.636 58.3841 390.404 58.3841C391.257 58.3841 392.239 58.1281 393.348 57.6161C394.543 57.0188 395.695 56.2081 396.804 55.1841C397.999 54.1601 399.023 52.8801 399.876 51.3441C400.815 49.8081 401.497 48.0588 401.924 46.0961L402.18 45.3281C400.985 45.3281 399.193 45.6268 396.804 46.2241C394.415 46.8214 391.94 47.6321 389.38 48.6561C386.82 49.5948 384.431 50.7468 382.212 52.1121C379.993 53.3921 378.457 54.8001 377.604 56.3361C378.884 56.5921 380.121 56.8481 381.316 57.1041C382.596 57.2748 383.833 57.4454 385.028 57.6161ZM379.14 67.0881C379.311 66.9174 379.396 66.6614 379.396 66.3201C379.481 65.9788 379.524 65.7228 379.524 65.5521L373.508 63.3761L372.868 65.1681L379.14 67.0881ZM375.556 96.1441C374.959 95.4614 374.361 94.7788 373.764 94.0961C373.252 93.4988 372.825 92.9014 372.484 92.3041C373.252 93.7548 374.276 95.0348 375.556 96.1441Z" fill="var(--foreground-color)"/>
<path d="M437.539 85.3921C438.904 85.8188 440.526 86.5868 442.403 87.6961C444.366 88.8054 446.542 89.9574 448.931 91.1521C451.32 92.3468 453.923 93.4134 456.739 94.3521C459.64 95.2908 462.712 95.7601 465.955 95.7601H467.363C467.875 95.7601 468.472 95.6748 469.155 95.5041L470.563 96.5281C473.891 95.5041 476.622 93.5841 478.755 90.7681C480.888 87.8668 481.955 83.9841 481.955 79.1201C481.955 75.6214 481.102 73.2321 479.395 71.9521C477.774 70.5868 474.744 69.9041 470.307 69.9041C467.576 69.9041 464.718 70.1174 461.731 70.5441C458.83 70.8854 455.758 71.0561 452.515 71.0561C451.064 71.0561 449.571 71.0135 448.035 70.9281C446.499 70.7574 444.92 70.4588 443.299 70.0321V70.8001C446.712 71.6534 450.083 72.0801 453.411 72.0801C456.654 72.0801 459.726 71.9094 462.627 71.5681C465.614 71.1414 468.472 70.9281 471.203 70.9281C473.507 70.9281 475.299 71.1841 476.579 71.6961C477.944 72.1228 478.968 72.7201 479.651 73.4881C480.334 74.2561 480.76 75.1948 480.931 76.3041C481.187 77.3281 481.315 78.4801 481.315 79.7601C481.315 83.7708 480.248 87.1841 478.115 90.0001C476.067 92.6454 473.635 94.3094 470.819 94.9921C473.976 93.8828 476.451 91.9628 478.243 89.2321C480.12 86.3308 481.059 83.0881 481.059 79.5041C481.059 76.9441 480.376 74.9814 479.011 73.6161C477.731 72.2508 475.47 71.5681 472.227 71.5681C469.582 71.5681 466.595 71.7388 463.267 72.0801C459.939 72.4214 456.398 72.5921 452.643 72.5921C450.339 72.5921 447.651 72.2934 444.579 71.6961C441.592 71.0988 438.734 69.9895 436.003 68.3681C433.272 66.7468 430.968 64.5281 429.091 61.7121C427.214 58.8108 426.275 55.0561 426.275 50.4481C426.275 46.7788 427 43.4081 428.451 40.3361C429.987 37.1788 431.992 34.4481 434.467 32.1441C436.942 29.7548 439.758 27.8774 442.915 26.5121C446.158 25.1468 449.486 24.4214 452.899 24.3361C456.142 24.3361 459.214 24.8054 462.115 25.7441C465.102 26.5974 467.918 27.7494 470.563 29.2001C473.208 30.5654 475.726 32.1014 478.115 33.8081C480.504 35.5148 482.723 37.2214 484.771 38.9281L482.211 41.4881C481.614 41.4881 480.718 41.1468 479.523 40.4641C478.328 39.6961 476.494 38.4161 474.019 36.6241L473.251 37.7761C476.323 40.2508 478.542 42.5548 479.907 44.6881C481.358 46.8214 482.083 48.4854 482.083 49.6801C481.912 50.3628 481.486 50.7041 480.803 50.7041C480.12 50.7041 478.755 50.1494 476.707 49.0401C474.659 47.9308 472.312 46.6934 469.667 45.3281C467.107 43.9628 464.376 42.7254 461.475 41.6161C458.574 40.5068 455.928 39.9521 453.539 39.9521C452.174 39.9521 450.808 40.2081 449.443 40.7201C448.078 41.2321 446.84 41.9574 445.731 42.8961C444.622 43.7494 443.683 44.8161 442.915 46.0961C442.232 47.3761 441.891 48.7841 441.891 50.3201C441.891 52.7948 443.043 54.4588 445.347 55.3121C447.651 56.1654 450.68 56.5921 454.435 56.5921C455.203 56.5921 456.014 56.5921 456.867 56.5921C457.806 56.5068 458.659 56.3788 459.427 56.2081C461.39 56.2081 462.67 56.1654 463.267 56.0801C463.95 55.9094 464.59 55.8241 465.187 55.8241C468.856 55.8241 472.526 56.0801 476.195 56.5921C479.864 57.1041 483.15 58.2134 486.051 59.9201C488.952 61.6268 491.299 64.0588 493.091 67.2161C494.883 70.3734 495.779 74.5974 495.779 79.8881C495.779 83.5574 495.139 87.2268 493.859 90.8961C492.664 94.4801 490.83 97.7228 488.355 100.624C485.88 103.44 482.808 105.701 479.139 107.408C475.47 109.2 471.16 110.096 466.211 110.096C463.224 110.096 459.683 109.499 455.587 108.304C451.576 107.195 447.736 105.872 444.067 104.336C440.483 102.715 437.411 101.051 434.851 99.3441C432.376 97.6374 431.139 96.1868 431.139 94.9921C431.139 94.6508 431.352 94.3948 431.779 94.2241C436.984 98.0641 442.275 101.221 447.651 103.696C452.942 106 458.36 107.28 463.907 107.536C461.176 107.365 458.446 106.896 455.715 106.128C452.899 105.275 450.083 104.251 447.267 103.056C444.536 101.776 441.891 100.368 439.331 98.8321C436.856 97.2108 434.467 95.5895 432.163 93.9681L434.083 92.3041C433.827 92.2188 433.358 91.9201 432.675 91.4081C431.992 90.8961 431.31 90.2561 430.627 89.4881C430.03 88.7201 429.475 87.9094 428.963 87.0561C428.451 86.2028 428.195 85.3921 428.195 84.6241C428.195 83.7708 428.366 83.2161 428.707 82.9601C429.048 82.7041 429.432 82.5761 429.859 82.5761C430.286 82.5761 431.182 82.8748 432.547 83.4721C433.912 84.0694 435.576 84.7094 437.539 85.3921ZM465.827 98.4481C462.84 98.4481 459.512 97.8508 455.843 96.6561C452.259 95.3761 448.846 93.7548 445.603 91.7921C448.248 93.5841 451.192 95.2054 454.435 96.6561C457.678 98.0214 461.432 98.7041 465.699 98.7041C471.416 98.7041 475.939 96.9548 479.267 93.4561C482.68 89.9574 484.387 85.2641 484.387 79.3761V78.0961C483.96 75.3654 483.022 73.1468 481.571 71.4401C480.206 69.6481 478.072 68.6668 475.171 68.4961C476.963 68.8374 478.414 69.3921 479.523 70.1601C480.718 70.9281 481.614 71.8668 482.211 72.9761C482.894 74.0001 483.363 75.1521 483.619 76.4321C483.875 77.7121 484.003 79.0348 484.003 80.4001C483.662 86.0321 481.87 90.4694 478.627 93.7121C475.384 96.8694 471.118 98.4481 465.827 98.4481ZM482.083 103.44C484.216 102.075 485.923 100.411 487.203 98.4481C488.483 96.4854 489.592 94.4374 490.531 92.3041C488.739 95.8881 486.264 99.0454 483.107 101.776C480.035 104.507 476.366 106.213 472.099 106.896C473.72 106.64 475.384 106.299 477.091 105.872C478.883 105.36 480.547 104.549 482.083 103.44ZM494.243 79.3761C494.243 78.4374 494.072 77.5414 493.731 76.6881C493.475 76.0054 493.262 75.2801 493.091 74.5121L493.219 76.1761C493.304 76.8588 493.347 77.7974 493.347 78.9921C493.347 81.2961 493.091 83.5148 492.579 85.6481C492.067 87.7815 491.427 89.8721 490.659 91.9201C491.427 90.0428 492.152 88.0801 492.835 86.0321C493.603 83.8988 494.072 81.6801 494.243 79.3761Z" fill="var(--foreground-color)"/>
<path d="M554.221 42.0001C553.453 42.0001 552.386 42.1281 551.021 42.3841C549.741 42.6401 548.418 42.9388 547.053 43.2801C545.773 43.6214 544.578 43.9628 543.469 44.3041C542.445 44.6454 541.805 44.9014 541.549 45.0721C543.768 44.7308 545.816 44.3468 547.693 43.9201C549.57 43.4081 551.618 43.1521 553.837 43.1521C553.41 43.9201 552.856 44.5174 552.173 44.9441C551.49 45.3708 550.722 45.7121 549.869 45.9681C549.101 46.1388 548.248 46.3094 547.309 46.4801C546.37 46.5654 545.389 46.7361 544.365 46.9921L543.469 45.8401C541.848 46.4374 540.61 46.8214 539.757 46.9921C538.904 47.0774 538.008 47.1201 537.069 47.1201C536.045 47.1201 534.978 47.1201 533.869 47.1201C532.845 47.0348 531.693 46.9921 530.413 46.9921C530.413 47.4188 530.37 47.7601 530.285 48.0161C532.248 48.0161 533.912 48.0161 535.277 48.0161C536.642 47.9308 538.306 47.7601 540.269 47.5041C538.392 47.8454 536.728 48.1014 535.277 48.2721C533.912 48.4428 532.248 48.5281 530.285 48.5281C529.944 50.4908 529.645 52.4108 529.389 54.2881C529.133 56.1654 529.005 58.0001 529.005 59.7921C529.005 60.8161 529.048 62.0108 529.133 63.3761C529.218 64.7414 529.304 66.1494 529.389 67.6001C529.56 68.9654 529.688 70.2881 529.773 71.5681C529.858 72.7628 529.901 73.6588 529.901 74.2561V81.9361C530.328 83.6428 531.565 84.9228 533.613 85.7761C535.661 86.6294 538.605 87.0561 542.445 87.0561H546.541C547.992 87.0561 548.973 87.2268 549.485 87.5681C550.082 87.8241 550.381 88.2081 550.381 88.7201C550.381 89.1468 550.04 89.4028 549.357 89.4881C548.674 89.4881 547.992 89.4881 547.309 89.4881C544.834 89.4881 542.232 89.3174 539.501 88.9761C536.941 88.6348 534.424 88.2508 531.949 87.8241C534.424 88.4214 537.026 88.9761 539.757 89.4881C542.573 89.9148 545.304 90.1281 547.949 90.1281H549.101C549.442 90.1281 549.826 90.0854 550.253 90.0001C550.253 90.4268 550.253 90.8108 550.253 91.1521C550.338 91.4934 550.466 91.8774 550.637 92.3041L551.661 92.0481C551.917 91.9628 552.216 91.9201 552.557 91.9201C552.898 91.8348 553.154 91.7068 553.325 91.5361C556.056 91.7921 557.421 92.7308 557.421 94.3521C557.421 95.2908 557.165 96.0588 556.653 96.6561C556.141 97.2534 555.501 97.7228 554.733 98.0641C553.965 98.4055 553.112 98.6614 552.173 98.8321C551.234 98.9174 550.338 98.9601 549.485 98.9601C546.498 98.9601 543.554 98.7894 540.653 98.4481C537.837 98.0214 535.064 97.5948 532.333 97.1681C534.722 98.0214 537.752 98.7041 541.421 99.2161C545.09 99.7281 548.802 99.9841 552.557 99.9841C551.618 100.581 550.509 101.051 549.229 101.392C547.949 101.733 546.626 101.904 545.261 101.904L536.045 100.752C534.85 100.581 533.912 100.411 533.229 100.24C532.632 100.069 532.034 99.8988 531.437 99.7281C530.84 99.4721 530.157 99.2161 529.389 98.9601C528.706 98.7041 527.725 98.4055 526.445 98.0641V96.6561C524.226 96.0588 522.434 95.0348 521.069 93.5841C519.704 92.1334 518.637 90.5548 517.869 88.8481C517.101 87.1414 516.589 85.4348 516.333 83.7281C516.077 81.9361 515.949 80.3574 515.949 78.9921C515.949 77.5414 515.949 76.2188 515.949 75.0241C516.034 73.7441 516.077 72.4641 516.077 71.1841C516.077 70.2454 516.034 69.0508 515.949 67.6001C515.949 66.1494 515.906 64.6134 515.821 62.9921C515.736 61.3708 515.65 59.7068 515.565 58.0001C515.565 56.2934 515.565 54.6721 515.565 53.1361C515.565 52.1974 515.565 51.3014 515.565 50.4481C515.65 49.5948 515.736 48.8268 515.821 48.1441H514.541C514.456 48.7414 514.413 49.4241 514.413 50.1921V52.4961C514.413 54.9708 514.456 57.4454 514.541 59.9201C514.626 62.3094 514.669 64.5281 514.669 66.5761C514.754 68.6241 514.84 70.4161 514.925 71.9521C515.01 73.4028 515.053 74.4694 515.053 75.1521V81.2961C514.797 78.9921 514.541 75.7068 514.285 71.4401C514.029 66.4908 513.901 61.0294 513.901 55.0561V52.7521C513.901 51.8134 513.901 50.9174 513.901 50.0641C513.986 49.2108 514.114 48.5708 514.285 48.1441L509.933 47.8881C508.994 47.2908 508.056 46.8214 507.117 46.4801C506.178 46.1388 505.325 45.9681 504.557 45.9681V43.4081C504.557 42.8961 504.6 42.4694 504.685 42.1281C504.856 41.7014 505.282 41.4881 505.965 41.4881C506.136 41.4881 506.562 41.5734 507.245 41.7441V40.2081C506.306 39.6961 505.538 39.0134 504.941 38.1601C504.344 37.2214 504.045 36.2828 504.045 35.3441C504.045 33.1254 505.624 32.0161 508.781 32.0161C509.976 32.0161 511.213 32.1014 512.493 32.2721C513.773 32.4428 515.096 32.5708 516.461 32.6561C516.802 30.7788 517.101 29.1148 517.357 27.6641C517.613 26.1281 517.869 24.6774 518.125 23.3121C518.381 21.8614 518.68 20.4534 519.021 19.0881C519.362 17.6374 519.789 16.1441 520.301 14.6081C521.069 12.9014 521.666 11.0668 522.093 9.10411C522.52 7.05611 522.818 5.05078 522.989 3.08811L525.677 3.21611C526.104 3.21611 526.445 3.34411 526.701 3.60011C527.042 3.85611 527.213 4.45344 527.213 5.39211C527.213 6.16011 527.085 7.18411 526.829 8.46411L528.365 8.84811C529.048 6.54411 529.858 4.66678 530.797 3.21611C531.821 1.76544 532.802 1.04011 533.741 1.04011C535.192 1.04011 536.088 2.87478 536.429 6.54411V8.84811C536.429 11.0668 536.258 13.1574 535.917 15.1201C535.661 16.9974 535.32 18.8748 534.893 20.7521C534.466 22.6294 534.04 24.5494 533.613 26.5121C533.186 28.4748 532.802 30.6081 532.461 32.9121C534.338 33.1681 536.173 33.2961 537.965 33.2961C538.818 33.2961 539.672 33.2961 540.525 33.2961C541.378 33.2108 542.232 33.1681 543.085 33.1681C543.938 33.1681 544.834 32.8268 545.773 32.1441C546.712 31.4614 547.565 31.1201 548.333 31.1201C549.016 31.1201 549.528 31.3334 549.869 31.7601C550.21 32.1868 550.381 32.6561 550.381 33.1681C548.845 33.5948 547.309 34.0641 545.773 34.5761C544.322 35.0028 542.914 35.4294 541.549 35.8561C542.914 35.6854 544.365 35.3868 545.901 34.9601C547.437 34.4481 549.058 33.9788 550.765 33.5521C550.765 33.9788 550.765 34.3628 550.765 34.7041C550.85 35.0454 550.978 35.4294 551.149 35.8561C551.32 35.8561 551.533 35.8134 551.789 35.7281C552.301 35.5574 552.6 35.4721 552.685 35.4721C553.538 35.8988 554.093 36.4534 554.349 37.1361C554.605 37.7334 554.733 38.4161 554.733 39.1841C554.733 39.7814 554.648 40.3361 554.477 40.8481C554.306 41.2748 554.221 41.6588 554.221 42.0001ZM520.301 89.2321C519.106 86.9281 518.466 84.6668 518.381 82.4481C518.296 80.2294 518.168 78.1388 517.997 76.1761L516.845 56.7201L516.461 59.0241C516.461 64.7414 516.632 69.9468 516.973 74.6401C517.4 79.2481 517.997 82.8321 518.765 85.3921C518.765 86.1601 518.722 86.6721 518.637 86.9281C518.637 87.1841 518.637 87.3974 518.637 87.5681C518.637 87.7388 518.722 87.9521 518.893 88.2081C519.149 88.4641 519.618 88.8055 520.301 89.2321ZM527.597 82.3201C527.426 81.6374 527.341 80.9121 527.341 80.1441V73.8721C527.256 74.7254 527.17 75.5788 527.085 76.4321C527 77.2001 526.957 78.0108 526.957 78.8641C526.957 81.0828 527.085 82.7894 527.341 83.9841C527.597 85.0081 528.109 85.8614 528.877 86.5441C528.45 86.0321 528.152 85.4774 527.981 84.8801C527.896 84.1974 527.768 83.3441 527.597 82.3201Z" fill="var(--foreground-color)"/>
<path d="M591.556 28.9441C591.641 29.3708 592.111 29.5841 592.964 29.5841H593.22C593.732 29.5841 594.073 29.6268 594.244 29.7121C598.681 31.0774 603.076 33.0828 607.428 35.7281C611.865 38.2881 615.833 41.4028 619.332 45.0721C622.916 48.6561 625.775 52.7521 627.908 57.3601C630.127 61.9681 631.236 66.9174 631.236 72.2081C631.236 76.8161 630.34 81.2534 628.548 85.5201C626.756 89.7868 624.281 93.4988 621.124 96.6561C624.367 93.8401 626.927 90.3414 628.804 86.1601C630.767 81.8934 631.748 77.3281 631.748 72.4641C631.748 67.0028 630.596 61.9254 628.292 57.2321C625.988 52.4534 623.044 48.1868 619.46 44.4321C615.876 40.6774 611.865 37.4774 607.428 34.8321C603.076 32.1014 598.809 30.0108 594.628 28.5601C597.871 28.5601 601.156 29.2854 604.484 30.7361C607.897 32.1868 611.14 34.1068 614.212 36.4961C617.284 38.8001 620.1 41.4881 622.66 44.5601C625.305 47.5468 627.524 50.6188 629.316 53.7761L628.42 55.0561C630.127 57.6161 631.407 60.3894 632.26 63.3761C633.199 66.3628 633.668 69.4348 633.668 72.5921C633.668 78.6508 632.345 83.9841 629.7 88.5921C627.14 93.1148 623.855 96.9121 619.844 99.9841C615.919 102.971 611.567 105.232 606.788 106.768C602.095 108.304 597.657 109.072 593.476 109.072C591.087 109.072 588.655 108.816 586.18 108.304C583.791 107.792 581.359 106.939 578.884 105.744V106.512C581.273 107.877 583.705 108.816 586.18 109.328C588.74 109.84 591.257 110.096 593.732 110.096C599.876 110.096 605.892 108.731 611.78 106C617.753 103.355 622.788 99.6001 626.884 94.7361C622.959 99.7708 618.052 103.696 612.164 106.512C606.361 109.328 600.303 110.736 593.988 110.736C587.503 110.736 582.255 109.456 578.244 106.896C574.233 104.421 571.076 101.349 568.772 97.6801C566.553 94.0108 565.06 90.1281 564.292 86.0321C563.524 81.9361 563.14 78.2668 563.14 75.0241C563.14 70.6721 563.695 66.4054 564.804 62.2241C565.999 58.0428 567.791 54.2028 570.18 50.7041C572.569 47.2054 575.641 44.2188 579.396 41.7441C583.151 39.1841 587.673 37.3921 592.964 36.3681L589.252 35.4721C587.46 35.0454 586.18 34.5334 585.412 33.9361C584.644 33.3388 584.26 32.8268 584.26 32.4001C584.26 31.7174 584.985 30.9921 586.436 30.2241C587.972 29.3708 589.679 28.9441 591.556 28.9441ZM585.796 45.0721C588.1 44.2188 590.319 43.7921 592.452 43.7921C594.585 43.7921 596.207 44.1334 597.316 44.8161C598.511 45.4134 599.108 46.0534 599.108 46.7361C599.108 47.1628 598.596 47.6321 597.572 48.1441C596.633 48.6561 595.396 49.3814 593.86 50.3201C592.409 51.1734 590.788 52.2828 588.996 53.6481C587.289 55.0134 585.668 56.7628 584.132 58.8961C582.681 60.9441 581.444 63.4614 580.42 66.4481C579.481 69.4348 579.012 72.9334 579.012 76.9441C579.012 82.8321 580.335 87.2694 582.98 90.2561C585.625 93.2428 589.295 94.7361 593.988 94.7361C596.975 94.7361 600.004 94.2241 603.076 93.2001C606.233 92.1761 609.049 90.7254 611.524 88.8481C614.084 86.9708 616.132 84.6668 617.668 81.9361C619.289 79.2054 620.1 76.1334 620.1 72.7201C620.1 70.1601 619.631 67.6001 618.692 65.0401C617.839 62.4801 616.601 60.0481 614.98 57.7441C613.444 55.3548 611.567 53.1361 609.348 51.0881C607.215 49.0401 604.868 47.2908 602.308 45.8401C599.833 44.4748 597.785 43.4508 596.164 42.7681C594.628 42.0001 593.519 41.2748 592.836 40.5921C592.153 40.9334 591.172 41.3601 589.892 41.8721C588.697 42.2988 587.076 42.9814 585.028 43.9201L585.796 45.0721ZM594.372 39.0561C598.297 40.3361 602.052 42.2561 605.636 44.8161C608.708 47.1201 611.524 49.6374 614.084 52.3681C611.609 49.4668 608.921 46.8641 606.02 44.5601C602.692 41.8294 598.98 39.6961 594.884 38.1601L594.372 39.0561ZM619.204 82.7041C617.924 85.4348 616.132 87.8668 613.828 90.0001C615.364 88.9761 616.644 87.7388 617.668 86.2881C618.777 84.8375 619.673 83.3868 620.356 81.9361C621.039 80.4854 621.551 79.1628 621.892 77.9681C622.148 76.8588 622.361 75.9628 622.532 75.2801C621.593 77.4988 620.484 79.9734 619.204 82.7041ZM627.78 93.7121C627.695 93.8828 627.567 94.0534 627.396 94.2241C627.311 94.3094 627.225 94.3521 627.14 94.3521C627.055 94.3521 627.268 93.9254 627.78 93.0721C628.292 92.1334 628.889 91.0668 629.572 89.8721C630.34 88.5921 631.065 87.2694 631.748 85.9041C632.345 84.8801 632.772 83.9841 633.028 83.2161C631.833 86.8854 630.084 90.3841 627.78 93.7121ZM634.948 72.9761C634.948 74.3414 634.863 75.7068 634.692 77.0721C634.521 78.3521 634.223 79.5468 633.796 80.6561C634.393 78.5228 634.692 76.1334 634.692 73.4881C634.692 71.5254 634.521 69.6054 634.18 67.7281C633.924 66.1068 633.583 64.5281 633.156 62.9921C633.583 64.5281 633.967 66.0641 634.308 67.6001C634.735 69.3068 634.948 71.0988 634.948 72.9761ZM594.372 37.0081L593.22 36.4961C593.135 36.6668 593.007 36.8374 592.836 37.0081C592.665 37.1788 592.58 37.3494 592.58 37.5201C592.58 37.6908 592.665 37.9468 592.836 38.2881C593.092 38.5441 593.305 38.7574 593.476 38.9281L594.372 37.0081ZM614.852 53.2641C614.596 52.9228 614.34 52.6241 614.084 52.3681C614.34 52.7094 614.596 53.0081 614.852 53.2641Z" fill="var(--foreground-color)"/>
<path d="M645.14 97.8081C645.14 97.3814 645.268 96.8694 645.524 96.2721C645.78 95.6748 645.908 95.0348 645.908 94.3521C646.164 92.3041 646.335 90.8534 646.42 90.0001C646.505 89.0614 646.548 88.2508 646.548 87.5681C646.548 83.9841 646.42 80.1441 646.164 76.0481C645.993 71.8668 645.78 67.8561 645.524 64.0161C645.524 62.8214 645.481 61.4134 645.396 59.7921C645.396 58.1708 645.311 56.8908 645.14 55.9521C645.396 52.9654 645.609 50.0214 645.78 47.1201C645.951 44.2188 646.036 41.2748 646.036 38.2881V35.0881C646.036 33.9788 645.993 32.8694 645.908 31.7601C646.164 32.0161 646.42 32.1441 646.676 32.1441C647.017 32.1441 647.359 32.0161 647.7 31.7601C648.127 31.5041 648.511 31.3761 648.852 31.3761C649.449 31.3761 649.919 32.0161 650.26 33.2961C650.687 34.5761 650.9 37.3921 650.9 41.7441H652.052C652.479 36.9654 653.119 33.1681 653.972 30.3521C654.911 27.5361 655.849 26.1281 656.788 26.1281C657.215 26.1281 657.897 27.0668 658.836 28.9441C659.775 30.7361 660.244 33.5948 660.244 37.5201L661.652 35.2161C662.591 34.1068 663.615 32.9548 664.724 31.7601C665.919 30.5654 667.241 29.4988 668.692 28.5601C670.143 27.6214 671.764 26.8534 673.556 26.2561C675.348 25.5734 677.396 25.2321 679.7 25.2321C684.137 25.2321 687.977 26.2561 691.22 28.3041C694.548 30.2668 697.321 32.8694 699.54 36.1121C701.759 39.2694 703.551 42.8961 704.916 46.9921C706.367 51.0028 707.476 55.0988 708.244 59.2801C709.012 63.3761 709.524 67.3441 709.78 71.1841C710.036 75.0241 710.164 78.3094 710.164 81.0401C710.164 83.5148 709.993 85.0081 709.652 85.5201C709.396 85.9468 708.884 86.2028 708.116 86.2881C707.945 79.7175 707.519 73.0188 706.836 66.1921C706.153 59.3654 704.532 52.7521 701.972 46.3521C704.276 53.0934 705.727 59.7494 706.324 66.3201C707.007 72.8054 707.348 79.3334 707.348 85.9041C706.836 85.6481 706.367 85.5201 705.94 85.5201C705.599 85.5201 705.3 85.6481 705.044 85.9041C705.044 86.5868 705.087 87.3121 705.172 88.0801C705.257 88.7628 705.3 89.4454 705.3 90.1281C705.385 90.8108 705.428 91.4508 705.428 92.0481C704.916 94.0108 704.404 95.4188 703.892 96.2721C703.38 97.1254 702.911 97.5521 702.484 97.5521C701.972 97.5521 701.545 97.3388 701.204 96.9121C700.863 96.4001 700.521 95.8028 700.18 95.1201C699.924 94.4375 699.625 93.7121 699.284 92.9441C699.028 92.0908 698.644 91.2801 698.132 90.5121C698.303 89.0614 698.431 87.9094 698.516 87.0561C698.601 86.1174 698.644 85.3494 698.644 84.7521C698.644 82.4481 698.601 79.6748 698.516 76.4321C698.431 73.1894 698.175 69.8188 697.748 66.3201C697.407 62.7361 696.809 59.1948 695.956 55.6961C695.188 52.1121 694.079 48.9548 692.628 46.2241C691.263 43.4081 689.513 41.1468 687.38 39.4401C685.247 37.6481 682.687 36.7521 679.7 36.7521C677.652 36.7521 675.817 37.4348 674.196 38.8001C672.66 40.1654 671.295 41.9148 670.1 44.0481C668.991 46.1814 668.009 48.5281 667.156 51.0881C666.303 53.5628 665.62 55.9521 665.108 58.2561C665.876 55.8668 666.644 53.4348 667.412 50.9601C668.265 48.4854 669.247 46.2241 670.356 44.1761C671.551 42.1281 672.916 40.4641 674.452 39.1841C675.988 37.8188 677.78 37.1361 679.828 37.1361C682.473 37.1361 684.735 37.8614 686.612 39.3121C688.575 40.7628 690.196 42.6401 691.476 44.9441C692.841 47.2481 693.908 49.8934 694.676 52.8801C695.529 55.7814 696.169 58.7681 696.596 61.8401C697.023 64.8268 697.279 67.7708 697.364 70.6721C697.535 73.4881 697.62 75.9201 697.62 77.9681C697.62 79.5894 697.577 81.2108 697.492 82.8321C697.492 84.4534 697.449 86.1174 697.364 87.8241C696.596 84.5814 695.999 81.2108 695.572 77.7121C695.231 74.1281 694.847 70.6294 694.42 67.2161C693.993 63.7174 693.439 60.3894 692.756 57.2321C692.159 53.9894 691.263 51.0028 690.068 48.2721L690.964 46.9921C690.111 45.0294 689.129 43.5361 688.02 42.5121C686.996 41.4028 685.972 40.5921 684.948 40.0801C683.924 39.5681 682.985 39.2694 682.132 39.1841C681.279 39.0988 680.724 39.0561 680.468 39.0561C678.335 39.0561 676.415 39.8241 674.708 41.3601C673.087 42.8961 671.636 44.9868 670.356 47.6321C669.161 50.1921 668.095 53.1788 667.156 56.5921C666.217 60.0054 665.407 63.5894 664.724 67.3441C664.041 71.0988 663.444 74.8961 662.932 78.7361C662.42 82.4908 661.993 86.0321 661.652 89.3601H662.804C663.231 86.4588 663.657 83.2588 664.084 79.7601C664.596 76.2615 665.108 72.7201 665.62 69.1361C666.217 65.4668 666.9 61.9254 667.668 58.5121C668.436 55.0988 669.332 52.0268 670.356 49.2961C671.465 46.5654 672.745 44.3468 674.196 42.6401C675.561 41.0188 677.225 40.0801 679.188 39.8241C677.311 40.2508 675.732 41.4454 674.452 43.4081C673.087 45.4561 671.892 47.9734 670.868 50.9601C669.844 53.9468 668.905 57.2321 668.052 60.8161C667.284 64.3148 666.559 67.6855 665.876 70.9281L663.316 89.6161C662.975 90.8108 662.719 91.8774 662.548 92.8161L662.036 95.5041C661.865 96.3574 661.695 97.2961 661.524 98.3201C661.353 99.2588 661.14 100.368 660.884 101.648L660.5 103.184H659.732L646.804 98.8321C646.377 98.7468 646.036 98.6188 645.78 98.4481C645.609 98.2774 645.396 98.0641 645.14 97.8081ZM667.412 32.1441C665.705 33.5948 664.34 35.1734 663.316 36.8801C662.377 38.5014 661.481 40.1654 660.628 41.8721V42.0001C661.823 39.5254 663.487 37.0081 665.62 34.4481C667.668 32.0588 670.399 30.2668 673.812 29.0721C672.703 29.4134 671.636 29.7548 670.612 30.0961C669.417 30.5228 668.351 31.2054 667.412 32.1441ZM682.772 27.9201C682.345 27.8348 681.748 27.7921 680.98 27.7921C683.711 28.4748 686.271 29.2428 688.66 30.0961C691.049 30.8641 693.311 32.4428 695.444 34.8321C693.993 32.8694 692.073 31.3334 689.684 30.2241C687.38 29.1148 685.076 28.3468 682.772 27.9201ZM686.228 42.5121C685.545 42.0001 684.735 41.6161 683.796 41.3601C682.943 41.0188 681.876 40.5921 680.596 40.0801L680.468 39.8241C681.919 39.9094 683.199 40.2508 684.308 40.8481C685.417 41.3601 686.484 42.2988 687.508 43.6641L686.228 42.5121ZM695.7 35.0881C696.895 36.5388 698.004 38.2028 699.028 40.0801C700.052 41.9574 700.948 43.6214 701.716 45.0721C700.863 43.1094 700.052 41.3174 699.284 39.6961C698.516 38.0748 697.321 36.5388 695.7 35.0881Z" fill="var(--foreground-color)"/>
<path d="M798.077 78.9674C799.293 79.7208 800.672 80.8685 802.213 82.4105C803.838 83.9738 805.658 85.6316 807.675 87.3838C809.691 89.136 811.946 90.8174 814.439 92.428C817.015 94.0598 819.874 95.2797 823.014 96.0875L824.378 96.4382C824.874 96.5658 825.473 96.6319 826.177 96.6367L827.285 97.9792C830.764 97.8165 833.887 96.6373 836.654 94.4415C839.443 92.1631 841.443 88.6686 842.655 83.9579C843.527 80.5696 843.295 78.043 841.961 76.3782C840.731 74.652 837.967 73.2362 833.67 72.1308C831.025 71.4505 828.204 70.945 825.205 70.6142C822.31 70.222 819.292 69.622 816.152 68.8142C814.747 68.4528 813.311 68.0395 811.845 67.5742C810.4 67.0262 808.945 66.3437 807.482 65.5266L807.29 66.2704C810.383 67.9471 813.542 69.2 816.765 70.0291C819.905 70.8369 822.923 71.4369 825.818 71.8291C828.816 72.1599 831.638 72.6654 834.283 73.3457C836.514 73.9197 838.186 74.614 839.298 75.4287C840.514 76.1821 841.357 77.0157 841.827 77.9295C842.296 78.8434 842.476 79.8587 842.365 80.9756C842.358 82.0311 842.195 83.1787 841.876 84.4183C840.877 88.3025 838.993 91.3425 836.226 93.5383C833.583 95.5901 830.813 96.5957 827.916 96.5554C831.25 96.2676 834.125 95.0246 836.541 92.8264C839.082 90.4842 840.799 87.5776 841.692 84.1066C842.329 81.6273 842.157 79.5565 841.175 77.894C840.275 76.2529 838.255 75.0284 835.115 74.2206C832.553 73.5616 829.618 72.9829 826.31 72.4844C823.002 71.9859 819.53 71.269 815.893 70.3336C813.662 69.7597 811.133 68.8008 808.307 67.457C805.563 66.1345 803.071 64.348 800.83 62.0975C798.589 59.847 796.911 57.1243 795.794 53.9294C794.699 50.6519 794.725 46.7818 795.873 42.3191C796.787 38.7654 798.329 35.6817 800.499 33.0679C802.774 30.3928 805.396 28.2477 808.367 26.6329C811.358 24.9353 814.553 23.8187 817.951 23.283C821.432 22.7685 824.836 22.8951 828.163 23.6627C831.303 24.4705 834.161 25.6904 836.737 27.3222C839.417 28.8927 841.857 30.7099 844.058 32.7738C846.28 34.7551 848.335 36.8697 850.224 39.1178C852.113 41.3659 853.836 43.5715 855.395 45.7345L852.278 47.5761C851.699 47.4273 850.916 46.8735 849.929 45.9148C848.964 44.8734 847.506 43.1767 845.556 40.8247L844.525 41.749C846.884 44.911 848.458 47.695 849.249 50.1012C850.123 52.5287 850.411 54.3209 850.113 55.4779C849.778 56.0966 849.279 56.3209 848.618 56.1508C847.957 55.9807 846.773 55.1034 845.066 53.5189C843.359 51.9343 841.394 50.1514 839.172 48.1701C837.033 46.2101 834.697 44.3315 832.164 42.5344C829.63 40.7373 827.206 39.5411 824.892 38.9459C823.57 38.6057 822.184 38.5135 820.734 38.6693C819.284 38.825 817.905 39.2192 816.597 39.8519C815.31 40.402 814.135 41.2012 813.073 42.2496C812.093 43.3191 811.411 44.5977 811.029 46.0853C810.412 48.4819 811.113 50.3805 813.132 51.7808C815.151 53.1812 817.978 54.3491 821.615 55.2845C822.358 55.4758 823.144 55.6777 823.97 55.8903C824.9 56.0415 825.759 56.1301 826.545 56.1562C828.446 56.6451 829.696 56.9226 830.296 56.9888C830.999 56.9936 831.64 57.0704 832.219 57.2192C835.773 58.1333 839.262 59.2953 842.689 60.7052C846.115 62.1152 849.02 64.008 851.405 66.3836C853.79 68.7592 855.456 71.6992 856.405 75.2034C857.354 78.7076 857.17 83.0216 855.852 88.1455C854.938 91.6991 853.404 95.0934 851.25 98.3281C849.2 101.502 846.616 104.185 843.496 106.378C840.398 108.489 836.86 109.914 832.881 110.653C828.881 111.474 824.484 111.268 819.691 110.035C816.798 109.291 813.517 107.831 809.848 105.653C806.24 103.58 802.851 101.342 799.68 98.9404C796.613 96.4774 794.052 94.1006 791.998 91.81C790.026 89.5406 789.189 87.8275 789.487 86.6704C789.572 86.3399 789.842 86.1451 790.298 86.0861C794.383 91.1018 798.72 95.4775 803.31 99.2134C807.86 102.763 812.789 105.352 818.097 106.982C815.495 106.136 812.967 105.002 810.514 103.578C807.999 102.05 805.527 100.356 803.098 98.498C800.772 96.5781 798.561 94.5555 796.464 92.4301C794.471 90.2434 792.561 88.078 790.734 85.9338L793.008 84.8006C792.781 84.6542 792.401 84.248 791.867 83.5821C791.334 82.9161 790.832 82.1263 790.362 81.2124C789.975 80.3198 789.64 79.3965 789.357 78.4426C789.073 77.4886 789.027 76.6397 789.219 75.8959C789.431 75.0695 789.735 74.5748 790.129 74.4119C790.523 74.249 790.927 74.2207 791.34 74.327C791.754 74.4333 792.547 74.9458 793.72 75.8644C794.894 76.783 796.346 77.8174 798.077 78.9674ZM822.221 98.6588C819.328 97.9148 816.254 96.5073 812.998 94.4362C809.846 92.3037 806.944 89.8831 804.292 87.1746C806.408 89.5691 808.855 91.8727 811.634 94.0854C814.434 96.2155 817.901 97.812 822.033 98.8749C827.57 100.299 832.386 99.7317 836.48 97.1723C840.658 94.6343 843.48 90.5141 844.947 84.8117L845.265 83.5721C845.532 80.8212 845.176 78.4386 844.196 76.4244C843.32 74.3487 841.499 72.8669 838.731 71.9789C840.382 72.7558 841.649 73.6544 842.532 74.6745C843.497 75.7159 844.131 76.8482 844.433 78.0714C844.839 79.2332 845.007 80.4658 844.936 81.7692C844.865 83.0726 844.66 84.3855 844.319 85.7078C842.586 91.0772 839.745 94.9282 835.797 97.2608C831.87 99.5108 827.344 99.9768 822.221 98.6588ZM836.72 107.543C839.127 106.752 841.194 105.566 842.923 103.984C844.651 102.402 846.236 100.695 847.676 98.8627C845.048 101.887 841.865 104.329 838.127 106.187C834.471 108.066 830.492 108.805 826.19 108.403C827.824 108.559 829.521 108.643 831.28 108.655C833.143 108.605 834.956 108.235 836.72 107.543ZM854.492 87.267C854.726 86.3579 854.784 85.4476 854.666 84.5362C854.588 83.8113 854.562 83.0557 854.588 82.2694L854.297 83.9128C854.21 84.5952 854.017 85.5149 853.72 86.6719C853.146 88.9032 852.345 90.9882 851.318 92.9267C850.29 94.8653 849.15 96.7306 847.896 98.5227C849.107 96.8959 850.299 95.1758 851.47 93.3624C852.745 91.4876 853.753 89.4559 854.492 87.267Z" fill="var(--foreground-color)"/>
<path d="M776.754 103.22C773.89 105.104 771.643 106.3 770.012 106.808C768.402 107.4 766.988 107.896 765.769 108.299C761.142 109.491 756.745 109.699 752.58 108.922C748.414 108.146 744.626 106.611 741.215 104.317C737.804 102.024 734.843 99.086 732.333 95.503C729.885 91.8161 728.075 87.7003 726.904 83.1555C726.222 80.5112 725.767 77.7205 725.539 74.7832C725.289 71.7632 725.309 68.762 725.597 65.7796C725.865 62.7145 726.475 59.7814 727.427 56.9804C728.297 54.2007 729.52 51.5943 731.096 49.1613C729.394 51.4503 728.109 53.9847 727.239 56.7644C726.287 59.5655 725.636 62.5092 725.286 65.5956C724.914 68.5993 724.864 71.6525 725.135 74.7551C725.385 77.775 725.861 80.6484 726.564 83.3753C727.458 86.8458 728.954 90.4258 731.05 94.1153C733.208 97.7009 735.964 100.868 739.316 103.617C742.647 106.283 746.541 108.232 751 109.462C755.542 110.67 760.622 110.551 766.241 109.102C768.885 108.421 771.558 107.335 774.258 105.846C771.65 108.721 768.405 110.659 764.521 111.661C761.381 112.47 758.278 112.741 755.213 112.473C752.252 112.267 749.35 111.605 746.506 110.488C743.767 109.432 741.148 107.992 738.651 106.168C736.154 104.344 733.904 102.28 731.9 99.9767L732.76 98.6976C730.631 96.2502 728.874 93.7069 727.489 91.0678C726.187 88.4074 725.163 85.6311 724.417 82.7389C723.331 78.5247 722.866 74.3266 723.021 70.1447C723.26 65.9415 723.923 61.849 725.012 57.8673L726.932 53.0102C727.194 51.9734 727.662 50.8834 728.337 49.7402C729.094 48.5756 729.945 47.4311 730.888 46.3066C731.811 45.0995 732.807 44.0056 733.876 43.0251C735.006 41.9406 736.076 40.9601 737.083 40.0835C739.675 37.8293 742.309 35.7404 744.985 33.8168C747.641 31.8106 750.877 30.007 754.694 28.4063L754.102 28.1622C746.692 30.8654 740.726 34.386 736.204 38.7239C731.661 42.9791 728.28 47.6399 726.061 52.7061C723.842 57.7723 722.638 63.0174 722.45 68.4414C722.241 73.7827 722.754 78.8497 723.989 83.6424C724.649 86.204 725.527 88.7537 726.622 91.2914C727.778 93.7252 729.14 96.1058 730.709 98.4331C727.366 94.0076 724.98 89.0267 723.553 83.4903C722.147 78.0366 721.661 72.3899 722.095 66.5502C722.528 60.7105 724.101 55.0177 726.814 49.4719C730.6 43.6492 735.118 38.7835 740.367 34.875C745.595 30.8838 750.936 28.1853 756.39 26.7796C758.125 26.3323 759.976 26.1636 761.943 26.2734C763.91 26.3833 765.797 26.8663 767.604 27.7224C769.39 28.4958 770.982 29.7157 772.381 31.382C773.862 33.0269 774.954 35.2129 775.657 37.9397C776.232 40.1708 776.398 43.0361 776.154 46.5357C775.911 50.0352 775.109 53.5906 773.748 57.2018C772.449 60.709 770.507 63.9416 767.92 66.8994C765.313 69.7745 761.943 71.7446 757.812 72.8095L753.721 73.8638C750.494 73.9908 747.492 73.9713 744.718 73.8052C742.005 73.5352 739.468 73.4399 737.11 73.5191C737.12 74.9265 737.243 76.2605 737.48 77.5213C737.778 78.6782 738.077 79.835 738.375 80.9919C738.992 83.3882 739.847 85.6793 740.939 87.8653C742.093 89.9472 743.493 91.7894 745.14 93.3918C746.787 94.9941 748.648 96.2327 750.724 97.1076C752.861 97.8785 755.254 98.0991 757.9 97.7694C759.556 97.6952 760.972 97.5504 762.15 97.3348C763.307 97.0366 764.268 96.833 765.033 96.724C765.859 96.511 766.47 96.4858 766.864 96.6485C767.32 96.7073 767.622 97.0259 767.772 97.6043C767.009 98.0652 766.184 98.4541 765.296 98.771C764.491 99.0666 763.634 99.3316 762.725 99.5659C759.833 100.311 757.113 100.528 754.565 100.215C751.996 99.82 749.725 99.2156 747.753 98.4021C750.144 99.8128 752.767 100.59 755.625 100.735C758.461 100.797 761.159 100.498 763.721 99.838C765.126 99.476 766.54 98.9793 767.963 98.348C767.926 98.8864 767.918 99.1969 767.939 99.2795C768.067 99.7753 768.359 100.053 768.814 100.111C769.124 99.9436 769.649 99.5879 770.39 99.0444C771.11 98.4182 771.84 97.8334 772.581 97.2899C773.384 96.6424 774.166 96.0883 774.929 95.6274C775.67 95.0838 776.206 94.7695 776.536 94.6843C776.949 94.5778 777.342 94.5646 777.716 94.6446C778.067 94.6421 778.35 95.054 778.563 95.8803C778.776 96.7066 778.742 97.7728 778.462 99.0787C778.182 100.385 777.612 101.765 776.754 103.22ZM746.997 58.5453L749.852 58.3383C750.803 58.2692 751.651 58.1389 752.395 57.9472C753.221 57.7342 754.107 57.2414 755.054 56.4687C756.062 55.5921 756.975 54.5195 757.793 53.2511C758.695 51.9613 759.367 50.4662 759.81 48.7658C760.335 47.0442 760.56 45.1798 760.483 43.1728L760.539 42.3652C759.382 42.6634 757.722 43.3998 755.557 44.5746C753.392 45.7494 751.198 47.1521 748.975 48.7827C746.73 50.3306 744.704 52.0425 742.896 53.9184C741.067 55.7116 739.932 57.4585 739.489 59.1588C740.792 59.0873 742.054 59.0263 743.275 58.976C744.557 58.8218 745.798 58.6782 746.997 58.5453ZM743.66 69.1872C743.782 68.9793 743.801 68.7101 743.716 68.3796C743.713 68.0277 743.691 67.7692 743.648 67.6039L737.279 66.9984L737.107 68.8934L743.66 69.1872ZM747.441 98.2181C746.693 97.7061 745.944 97.1942 745.195 96.6822C744.55 96.2316 743.988 95.7596 743.508 95.2664C744.614 96.4795 745.925 97.4633 747.441 98.2181Z" fill="var(--foreground-color)"/>
<path d="M180.528 37.3277L182.688 37.5916C187.601 38.1917 192.362 39.6761 196.973 42.0447C201.594 44.3286 205.619 47.2704 209.048 50.87C212.477 54.4697 215.066 58.6115 216.815 63.2955C218.659 67.9051 219.265 72.7934 218.634 77.9603C217.961 83.466 216.635 87.9893 214.655 91.53C212.686 94.986 210.158 97.7291 207.073 99.7593C203.988 101.79 200.415 103.244 196.353 104.124C192.301 104.918 187.852 105.449 183.005 105.717C186.001 105.825 189.372 105.678 193.117 105.276C196.948 104.884 200.602 103.826 204.079 102.102C207.652 100.303 210.772 97.6321 213.44 94.0895C216.118 90.4622 217.84 85.5145 218.606 79.2464C219.547 71.5384 218.236 64.3288 214.672 57.6177C211.107 50.9066 205.239 45.4615 197.066 41.2824C195.063 40.0919 192.948 39.1029 190.723 38.3153C188.594 37.4534 186.385 36.8827 184.098 36.6033C184.912 36.2729 185.954 36.1853 187.225 36.3405C188.506 36.411 189.528 36.4929 190.29 36.586C193.593 36.9895 196.899 38.0811 200.206 39.8606C203.598 41.6504 206.716 43.9226 209.56 46.6772C212.405 49.4318 214.816 52.5633 216.795 56.0717C218.868 59.5059 220.281 63.0741 221.032 66.7765C220.588 66.8942 220.165 67.1865 219.764 67.6533C220.183 69.8537 220.438 71.991 220.528 74.0653C220.619 76.1395 220.535 78.2355 220.276 80.3531C219.986 82.7248 219.485 85.0706 218.771 87.3906C218.143 89.7209 217.096 91.9571 215.631 94.0992C214.25 96.2517 212.377 98.2151 210.011 99.9893C207.73 101.774 204.797 103.264 201.212 104.459C197.627 105.655 193.317 106.461 188.28 106.877C183.232 107.378 177.3 107.384 170.482 106.895C170.028 107.097 169.419 107.152 168.657 107.059C167.884 107.05 167.117 107 166.354 106.906L164.575 106.689C163.305 106.534 162.023 106.119 160.73 105.446C159.426 104.857 158.296 103.902 157.34 102.581C156.374 101.346 155.665 99.7549 155.215 97.8086C154.776 95.7776 154.732 93.3222 155.083 90.4423L155.254 89.0447C155.128 89.3731 154.98 89.527 154.811 89.5063C154.557 89.4753 154.44 89.3751 154.461 89.2057L154.383 89.8409C154.197 91.3656 154.07 93.1124 154.001 95.0812C153.943 96.9654 154.191 98.8011 154.747 100.588C155.387 102.386 156.487 103.939 158.046 105.247C159.68 106.65 162.106 107.548 165.325 107.941C166.087 108.034 166.855 108.085 167.628 108.094C168.475 108.197 169.38 108.179 170.342 108.038C176.557 108.54 182.526 108.581 188.251 108.163C194.061 107.755 199.276 106.587 203.896 104.658C208.526 102.645 212.376 99.6334 215.445 95.6239C218.513 91.6144 220.462 86.2216 221.29 79.4453C221.559 77.243 221.663 74.9776 221.604 72.6493C221.575 73.5913 221.593 74.4962 221.659 75.364C221.663 76.7399 221.582 78.1055 221.417 79.4608C221.189 81.3243 220.803 83.4263 220.259 85.767C219.8 88.118 218.955 90.4648 217.723 92.8074C216.576 95.1603 215.01 97.4192 213.027 99.5839C211.043 101.749 208.418 103.534 205.151 104.94C201.789 106.421 198.352 107.463 194.84 108.065C191.402 108.763 188.127 109.179 185.016 109.315C181.979 109.546 179.227 109.554 176.76 109.338C174.368 109.218 172.579 109.085 171.393 108.94L169.868 108.754C169.106 108.661 168.296 108.605 167.439 108.586C166.655 108.663 165.798 108.644 164.866 108.53L164.231 108.452C163.469 108.359 162.505 108.156 161.34 107.841C160.259 107.537 159.125 106.969 157.938 106.136C156.834 105.314 155.868 104.078 155.038 102.429C154.197 100.865 153.731 98.7018 153.638 95.9396C153.583 94.9872 153.569 94.0399 153.599 93.0978C153.628 92.1557 153.604 91.2932 153.528 90.5101C153.735 88.8161 154.053 87.2646 154.483 85.8556C154.924 84.362 155.201 83.1493 155.315 82.2176L158.155 58.9665L156.514 34.3942C156.806 32.7105 157.118 30.8573 157.451 28.8348C157.869 26.8226 158.25 24.7629 158.593 22.6557C159.032 20.4741 159.423 18.3296 159.766 16.2224C160.109 14.1151 160.4 12.0874 160.638 10.1392C160.721 9.46161 160.756 8.82116 160.744 8.21789C160.827 7.54026 160.904 6.90498 160.977 6.31206C161.2 6.59721 161.438 6.75531 161.692 6.78635C162.031 6.82774 162.38 6.78443 162.74 6.65641C163.194 6.45404 163.591 6.37355 163.93 6.41494C164.184 6.44598 164.423 6.60408 164.646 6.88923C164.869 7.17438 165.024 7.66612 165.11 8.36445C165.282 9.07312 165.327 10.1103 165.246 11.4759C165.175 12.7568 165.016 14.4137 164.768 16.4465L165.911 16.5862C166.819 11.9689 167.857 8.3991 169.025 5.87677C170.277 3.36478 171.369 2.1657 172.301 2.27952C173.402 2.41404 174.041 3.8676 174.219 6.64019C174.396 9.4128 174.315 12.8847 173.978 17.0559C173.735 21.1527 173.399 25.6678 172.968 30.6013C172.547 35.4501 172.327 40.0655 172.308 44.4475C172.629 49.5588 172.74 54.9883 172.639 60.7359C172.549 66.3988 172.263 71.9087 171.78 77.2657C171.294 81.2468 170.905 84.0792 170.614 85.7629C170.322 87.4466 170.045 88.6593 169.782 89.401L169.363 92.8315L173.73 92.978C176.44 93.3091 179.251 93.5235 182.162 93.6213C185.083 93.6343 187.559 93.4209 189.59 92.9813C193.22 92.823 196.077 92.3122 198.159 91.4491C200.337 90.5116 202.017 89.4273 203.199 88.1962C204.381 86.9651 205.192 85.6027 205.632 84.1091C206.073 82.6155 206.376 81.1911 206.541 79.8358C206.862 77.21 206.956 74.6854 206.822 72.2619C206.783 69.7641 206.337 67.4315 205.485 65.2641C204.642 63.012 203.266 60.9096 201.355 58.9568C199.455 56.9193 196.893 55.016 193.671 53.2469C190.119 51.3516 187.512 50.1735 185.849 49.7124C184.271 49.2617 183.529 48.6552 183.622 47.8928C183.632 47.8081 183.753 47.522 183.984 47.0345C187.521 47.6385 190.975 48.9201 194.347 50.8794C197.474 52.7229 200.259 54.9114 202.7 57.4448C200.343 54.9217 197.644 52.7436 194.601 50.9104C191.324 48.8768 187.928 47.4733 184.412 46.6999C184.708 46.3921 184.886 45.9841 184.948 45.4759C184.98 45.2218 184.894 44.8674 184.692 44.4129L182.532 44.149C181.939 44.0766 181.298 44.0413 180.61 44.0433C179.922 44.0452 179.361 44.0626 178.927 44.0956C176.915 43.6778 175.512 43.2055 174.716 42.6785C174.006 42.1618 173.687 41.607 173.759 41.0141C173.862 40.1671 174.644 39.4028 176.102 38.7214C177.646 38.0502 179.121 37.5857 180.528 37.3277ZM209.504 77.7477C209.028 81.6441 208.175 84.7635 206.943 87.1061C205.711 89.4487 204.165 91.1941 202.306 92.3424C204.694 91.0868 206.372 89.3145 207.339 87.0256C208.391 84.747 209.14 81.7866 209.585 78.1444C209.657 77.5515 209.682 76.9957 209.66 76.4771C209.711 76.0536 209.726 75.5826 209.703 75.064C209.641 75.5722 209.584 76.0381 209.533 76.4616C209.566 76.8955 209.556 77.3242 209.504 77.7477ZM203.035 57.8725C202.876 57.7671 202.764 57.6245 202.7 57.4448C202.859 57.5502 202.971 57.6927 203.035 57.8725Z" fill="var(--foreground-color)"/>
</svg>
