<svg width="56" height="12" viewBox="0 0 56 12" fill="none" xmlns="http://www.w3.org/2000/svg">
<path d="M54.9955 4.12322C55.0535 4.12322 55.1035 4.14685 55.1457 4.1947C55.1931 4.23739 55.2272 4.31244 55.2483 4.41917L55.6998 6.02066C55.7366 6.17521 55.75 6.30355 55.7395 6.40484C55.7288 6.50601 55.6704 6.57775 55.5651 6.62038C55.4703 6.65764 55.3861 6.65259 55.3123 6.60475C55.2438 6.55138 55.172 6.45785 55.0982 6.32443C54.7975 5.74274 54.4362 5.32915 54.0143 5.08367C53.5976 4.83823 53.1705 4.71512 52.7328 4.71512C52.3372 4.71513 52.0233 4.8197 51.7912 5.02783C51.5645 5.23594 51.4513 5.5056 51.4513 5.83639C51.4513 6.03899 51.4988 6.22278 51.5936 6.38809C51.6886 6.55353 51.8601 6.7061 52.108 6.84486C52.3559 6.9782 52.709 7.10387 53.1677 7.22122C53.8956 7.392 54.466 7.6025 54.8774 7.85333C55.2887 8.09877 55.5785 8.3795 55.7472 8.69428C55.9158 9.00892 55.9999 9.35543 56 9.73402C56 10.4118 55.7603 10.9594 55.2803 11.3757C54.8003 11.7866 54.1117 11.9922 53.2151 11.9922C52.8882 11.9922 52.6167 11.9626 52.4005 11.904C52.1896 11.8453 52.0131 11.7862 51.8707 11.7275C51.7336 11.6688 51.6119 11.6393 51.5064 11.6393C51.3959 11.6393 51.3117 11.6691 51.2537 11.7275L51.0793 11.904C51.0265 11.968 50.9548 12 50.8651 12C50.7917 11.9999 50.7339 11.9761 50.6918 11.9285C50.655 11.8859 50.6148 11.8081 50.5726 11.6962L49.9953 10.0065C49.9532 9.8627 49.9399 9.74286 49.9556 9.64691C49.9714 9.54551 50.0298 9.47542 50.13 9.43806C50.2247 9.4009 50.3091 9.40341 50.3828 9.44588C50.4566 9.48324 50.5223 9.55332 50.5804 9.65472C50.8177 10.0923 51.0708 10.4394 51.3398 10.6956C51.6088 10.9517 51.8946 11.1327 52.1952 11.2395C52.501 11.3461 52.8151 11.3992 53.1368 11.3992C53.6373 11.3991 54.0115 11.2929 54.2593 11.0798C54.5072 10.8663 54.6313 10.5832 54.6313 10.231C54.6313 10.0229 54.5789 9.83331 54.4735 9.66254C54.368 9.4865 54.1755 9.32388 53.8962 9.1745C53.6167 9.02512 53.221 8.88598 52.7096 8.75793C52.0661 8.60317 51.554 8.41362 51.1742 8.18948C50.7944 7.96 50.5196 7.69046 50.3508 7.38092C50.1874 7.06611 50.1057 6.70037 50.1057 6.28423C50.1057 5.86279 50.2117 5.48952 50.4225 5.16408C50.6335 4.83853 50.9291 4.58499 51.3089 4.40354C51.6939 4.21675 52.1452 4.12322 52.6621 4.12322C52.9887 4.12326 53.2546 4.15534 53.4602 4.21926C53.671 4.28326 53.8427 4.34985 53.9745 4.41917C54.1116 4.48319 54.2333 4.51519 54.3388 4.51522C54.4496 4.51522 54.5371 4.48321 54.6004 4.41917C54.6635 4.34998 54.7211 4.28315 54.7737 4.21926C54.8317 4.15524 54.9059 4.12324 54.9955 4.12322Z" fill="var(--foreground-color)"/>
<path fill-rule="evenodd" clip-rule="evenodd" d="M13.6738 4.12322C14.3226 4.12322 14.8822 4.25123 15.3516 4.5074C15.8261 4.76352 16.1926 5.11825 16.451 5.57171C16.7094 6.02 16.8384 6.54061 16.8384 7.13299C16.8384 7.37308 16.7678 7.56023 16.6254 7.69362C16.483 7.82157 16.2746 7.88564 16.0006 7.88571H11.4287C11.473 8.79836 11.7185 9.50285 12.1705 9.9987C12.6768 10.5483 13.3363 10.8228 14.1485 10.8229C14.6705 10.8229 15.1244 10.7033 15.5094 10.4633C15.8944 10.2232 16.1658 9.90539 16.324 9.51066C16.3926 9.42527 16.4485 9.36622 16.4907 9.3342C16.5381 9.29692 16.5882 9.27841 16.6408 9.27836C16.7094 9.27836 16.7593 9.31043 16.7909 9.37441C16.8279 9.43845 16.8437 9.51349 16.8384 9.59888C16.8067 10.0363 16.6485 10.4367 16.3638 10.7994C16.0842 11.1622 15.7094 11.4529 15.2401 11.6717C14.7708 11.885 14.2353 11.9922 13.6341 11.9922C12.8959 11.9921 12.2421 11.8345 11.6726 11.5198C11.1083 11.2049 10.6679 10.7643 10.3514 10.1986C10.0402 9.62757 9.8845 8.95798 9.8845 8.18948C9.8845 7.41033 10.0366 6.71615 10.3426 6.10777C10.6485 5.49416 11.0841 5.01148 11.6484 4.65928C12.218 4.30175 12.8933 4.12325 13.6738 4.12322ZM13.452 4.75533C13.0514 4.75543 12.6981 4.86999 12.3923 5.0993C12.0917 5.32878 11.8544 5.65737 11.6804 6.08432C11.5276 6.4543 11.4452 6.88393 11.4265 7.3731H14.7423C15.0057 7.37306 15.1373 7.25573 15.1375 7.02131C15.1375 6.30651 14.985 5.75105 14.6794 5.35617C14.3735 4.95591 13.9636 4.75533 13.452 4.75533Z" fill="var(--foreground-color)"/>
<path fill-rule="evenodd" clip-rule="evenodd" d="M20.0196 0C20.1567 0 20.26 0.0380817 20.3286 0.112797C20.3969 0.187463 20.4313 0.288774 20.4313 0.416566V5.27576C20.6704 5.02876 20.9262 4.81819 21.1984 4.64365C21.7364 4.29679 22.3192 4.12326 22.9468 4.12322C23.5691 4.12322 24.1228 4.28587 24.608 4.61126C25.0986 4.93147 25.4842 5.37455 25.7637 5.94025C26.0485 6.50592 26.1909 7.15463 26.1909 7.88571C26.1908 8.72877 26.0242 9.45765 25.692 10.0713C25.365 10.6847 24.9219 11.1591 24.363 11.4952C23.8092 11.8261 23.1923 11.9922 22.5119 11.9922C21.8842 11.9922 21.3247 11.8371 20.8342 11.5276C20.6227 11.3941 20.4297 11.2349 20.2536 11.0518L19.727 11.7599C19.5532 11.8452 19.424 11.9043 19.3396 11.9363C19.2552 11.9684 19.1701 11.9844 19.0857 11.9844C18.9909 11.9843 18.9117 11.9548 18.8484 11.8961C18.7904 11.8428 18.7612 11.7567 18.7612 11.6393V1.54565C18.7612 1.42824 18.7405 1.34215 18.6983 1.28879C18.6614 1.2302 18.598 1.19808 18.5085 1.19274L17.9709 1.16929C17.8812 1.15328 17.8169 1.12624 17.78 1.08888C17.7433 1.05158 17.7248 1.00079 17.7248 0.936994C17.7248 0.867615 17.7466 0.811052 17.7888 0.768357C17.8311 0.725786 17.9129 0.683614 18.0338 0.641042L19.3473 0.168637C19.5159 0.104695 19.6501 0.0615692 19.7502 0.0402047C19.8557 0.0135246 19.9457 3.89309e-06 20.0196 0ZM22.2978 5.00326C21.8708 5.00335 21.4676 5.12899 21.088 5.37962C20.8576 5.53178 20.6384 5.72902 20.4313 5.97152V10.3728C20.6073 10.5816 20.7986 10.7569 21.0086 10.8955C21.3883 11.1409 21.7971 11.264 22.2349 11.264C22.6516 11.264 23.0262 11.1484 23.3585 10.9189C23.6907 10.6841 23.9524 10.332 24.1422 9.86245C24.3373 9.3876 24.4347 8.79262 24.4347 8.0778C24.4347 7.40003 24.3423 6.8339 24.1577 6.38027C23.9731 5.92684 23.7198 5.58564 23.3983 5.35617C23.0765 5.12135 22.7092 5.00326 22.2978 5.00326Z" fill="var(--foreground-color)"/>
<path fill-rule="evenodd" clip-rule="evenodd" d="M29.3842 0C29.5213 0 29.6247 0.0380817 29.6932 0.112797C29.7615 0.187463 29.7959 0.288774 29.7959 0.416566V5.27576C30.035 5.02876 30.2908 4.81819 30.563 4.64365C31.101 4.29679 31.6838 4.12326 32.3114 4.12322C32.9337 4.12322 33.4875 4.28587 33.9726 4.61126C34.4632 4.93147 34.8488 5.37455 35.1283 5.94025C35.4131 6.50592 35.5555 7.15463 35.5555 7.88571C35.5554 8.72877 35.3888 9.45765 35.0566 10.0713C34.7296 10.6847 34.2865 11.1591 33.7276 11.4952C33.1738 11.8261 32.5569 11.9922 31.8765 11.9922C31.2488 11.9922 30.6893 11.8371 30.1988 11.5276C29.9873 11.3941 29.7943 11.2349 29.6182 11.0518L29.0917 11.7599C28.9178 11.8452 28.7886 11.9043 28.7042 11.9363C28.6198 11.9684 28.5347 11.9844 28.4503 11.9844C28.3555 11.9843 28.2763 11.9548 28.213 11.8961C28.155 11.8428 28.1258 11.7567 28.1258 11.6393V1.54565C28.1258 1.42824 28.1051 1.34215 28.0629 1.28879C28.026 1.2302 27.9626 1.19808 27.8731 1.19274L27.3355 1.16929C27.2458 1.15328 27.1815 1.12624 27.1446 1.08888C27.1079 1.05158 27.0894 1.00079 27.0894 0.936994C27.0894 0.867615 27.1112 0.811052 27.1534 0.768357C27.1957 0.725786 27.2775 0.683614 27.3984 0.641042L28.7119 0.168637C28.8805 0.104695 29.0147 0.0615692 29.1148 0.0402047C29.2203 0.0135246 29.3103 3.89309e-06 29.3842 0ZM31.6624 5.00326C31.2354 5.00335 30.8322 5.12899 30.4526 5.37962C30.2222 5.53178 30.003 5.72902 29.7959 5.97152V10.3728C29.9719 10.5816 30.1633 10.7569 30.3732 10.8955C30.7529 11.1409 31.1617 11.264 31.5995 11.264C32.0162 11.264 32.3908 11.1484 32.7231 10.9189C33.0553 10.6841 33.317 10.332 33.5068 9.86245C33.7019 9.3876 33.7993 8.79262 33.7993 8.0778C33.7993 7.40003 33.7069 6.8339 33.5223 6.38027C33.3378 5.92684 33.0844 5.58564 32.7629 5.35617C32.4411 5.12135 32.0738 5.00326 31.6624 5.00326Z" fill="var(--foreground-color)"/>
<path fill-rule="evenodd" clip-rule="evenodd" d="M45.4455 4.12322C46.0943 4.12322 46.6538 4.25123 47.1233 4.5074C47.5978 4.76352 47.9642 5.11825 48.2227 5.57171C48.4811 6.02 48.6101 6.54061 48.6101 7.13299C48.6101 7.37308 48.5394 7.56023 48.3971 7.69362C48.2547 7.82157 48.0463 7.88564 47.7723 7.88571H43.2004C43.2446 8.79836 43.4902 9.50285 43.9421 9.9987C44.4484 10.5483 45.108 10.8228 45.9201 10.8229C46.4422 10.8229 46.8961 10.7033 47.2811 10.4633C47.666 10.2232 47.9375 9.90539 48.0957 9.51066C48.1643 9.42527 48.2202 9.36622 48.2624 9.3342C48.3098 9.29692 48.3599 9.27841 48.4125 9.27836C48.481 9.27836 48.531 9.31043 48.5626 9.37441C48.5995 9.43845 48.6154 9.51349 48.6101 9.59888C48.5784 10.0363 48.4202 10.4367 48.1355 10.7994C47.8559 11.1622 47.4811 11.4529 47.0118 11.6717C46.5424 11.885 46.0069 11.9922 45.4058 11.9922C44.6676 11.9921 44.0138 11.8345 43.4443 11.5198C42.8799 11.2049 42.4396 10.7643 42.1231 10.1986C41.8119 9.62757 41.6562 8.95798 41.6562 8.18948C41.6562 7.41033 41.8083 6.71615 42.1142 6.10777C42.4201 5.49416 42.8558 5.01148 43.42 4.65928C43.9897 4.30175 44.6649 4.12325 45.4455 4.12322ZM45.2236 4.75533C44.823 4.75543 44.4698 4.86999 44.164 5.0993C43.8633 5.32878 43.6261 5.65737 43.452 6.08432C43.2993 6.4543 43.2169 6.88393 43.1982 7.3731H46.514C46.7774 7.37306 46.9089 7.25573 46.9091 7.02131C46.9091 6.30651 46.7567 5.75105 46.4511 5.35617C46.1451 4.95591 45.7353 4.75533 45.2236 4.75533Z" fill="var(--foreground-color)"/>
<path fill-rule="evenodd" clip-rule="evenodd" d="M3.93945 0.600838C5.03131 0.600838 5.96551 0.774373 6.74088 1.12127C7.52143 1.46815 8.11765 1.94578 8.52903 2.55412C8.9456 3.15708 9.15376 3.8454 9.15378 4.61908C9.15378 5.30753 8.98227 5.90318 8.63941 6.40484C8.30189 6.90623 7.82464 7.29558 7.20779 7.57301C6.59072 7.8505 5.86795 7.98955 5.03993 7.98958C4.48614 7.98958 3.96906 7.93051 3.4891 7.81312C3.33997 7.77624 3.19805 7.73217 3.06193 7.68581V10.671C3.06193 10.7884 3.09356 10.8844 3.15686 10.9591C3.22015 11.0339 3.31752 11.0819 3.44936 11.1032L4.24851 11.1993C4.3643 11.2152 4.44604 11.2499 4.49355 11.3031C4.5463 11.3511 4.57303 11.4237 4.57303 11.5198C4.57301 11.605 4.5412 11.6742 4.4781 11.7275C4.42014 11.7808 4.32252 11.8079 4.1856 11.8079H0.387433C0.255566 11.8079 0.158223 11.7809 0.0949265 11.7275C0.0316568 11.6741 1.67167e-05 11.6051 0 11.5198C0 11.3597 0.0998474 11.2526 0.300233 11.1993L0.822328 11.1032C0.948776 11.0712 1.04628 11.0206 1.11483 10.9513C1.1834 10.8819 1.21859 10.7884 1.21859 10.671V1.73774C1.21859 1.62567 1.1834 1.53462 1.11483 1.46524C1.04627 1.39063 0.948806 1.33753 0.822328 1.30554L0.300233 1.20949C0.0998835 1.15614 7.6894e-05 1.04897 0 0.888972C0 0.798246 0.0316304 0.728162 0.0949265 0.68013C0.158234 0.62699 0.255847 0.600838 0.387433 0.600838H3.93945ZM3.06193 7.07715C3.2882 7.15355 3.52504 7.21699 3.77388 7.26142C4.04797 7.30408 4.32212 7.32506 4.59621 7.32508C5.1341 7.32508 5.60629 7.21793 6.01238 7.00456C6.4238 6.78575 6.74366 6.47068 6.97047 6.05975C7.2024 5.64357 7.31817 5.14972 7.31817 4.57887C7.31813 3.90657 7.17824 3.31926 6.89873 2.81768C6.61918 2.31621 6.22366 1.92944 5.71215 1.65733C5.20578 1.37982 4.59878 1.24076 3.89199 1.24076H3.06193V7.07715Z" fill="var(--foreground-color)"/>
<path d="M39.1285 0C39.2656 0 39.369 0.0380817 39.4375 0.112797C39.5058 0.187467 39.5402 0.288754 39.5402 0.416566V10.7112C39.5402 10.8553 39.5669 10.9648 39.6197 11.0396C39.6724 11.1087 39.7517 11.157 39.857 11.1836L40.2124 11.264C40.3072 11.2907 40.3755 11.3278 40.4177 11.3757C40.4651 11.4183 40.4893 11.4741 40.4895 11.5432C40.4895 11.6232 40.4602 11.6873 40.4023 11.7353C40.3442 11.7833 40.2542 11.8079 40.1329 11.8079H37.2609C37.1451 11.8078 37.0583 11.7833 37.0004 11.7353C36.9425 11.6873 36.9132 11.6232 36.9132 11.5432C36.9133 11.4795 36.9341 11.4261 36.9761 11.3835C37.0235 11.3355 37.0928 11.2961 37.1825 11.264L37.5545 11.1836C37.6598 11.1516 37.7391 11.101 37.7918 11.0317C37.8445 10.9624 37.8701 10.8553 37.8701 10.7112V1.54565C37.8701 1.42824 37.8494 1.34215 37.8072 1.28879C37.7703 1.23021 37.7069 1.19807 37.6174 1.19274L37.0798 1.16929C36.9903 1.15331 36.9269 1.12612 36.89 1.08888C36.8531 1.05156 36.8337 1.00095 36.8337 0.936994C36.8337 0.867615 36.8555 0.811052 36.8977 0.768357C36.94 0.72578 37.0218 0.68362 37.1427 0.641042L38.4563 0.168637C38.6248 0.104696 38.759 0.0615766 38.8591 0.0402047C38.9646 0.0135332 39.0546 1.2453e-05 39.1285 0Z" fill="var(--foreground-color)"/>
</svg>
